<?xml version="1.0" encoding="utf-8"?>
<!-- Generator: Adobe Illustrator 25.0.0, SVG Export Plug-In . SVG Version: 6.00 Build 0)  -->
<svg version="1.1" id="Layer_1" xmlns="http://www.w3.org/2000/svg" xmlns:xlink="http://www.w3.org/1999/xlink" x="0px" y="0px"
	 viewBox="0 0 1080 1080" style="enable-background:new 0 0 1080 1080;" xml:space="preserve">
<style type="text/css">
	.st0{fill:#F4C603;}
	.st1{fill:#141414;}
</style>
<g>
	<g>
		<g id="Icons">
			<path d="M510.7,642h-38.3c-7.3,0-13.2-5.9-13.2-13.2s5.9-13.2,13.2-13.2h38.3c7.3,0,13.2,5.9,13.2,13.2S517.9,642,510.7,642z"/>
			<path d="M806.7,642h-72.1c-7.3,0-13.2-5.9-13.2-13.2s5.9-13.2,13.2-13.2h72.1c60.8,0,110.1-49.3,110.1-110.1
				s-49.3-110.1-110.1-110.1h-9c-7.3,0-13.2-5.9-13.2-13.2c0-0.3,0-0.7,0-1c0.4-5.5,0.8-10.5,0.8-15.7
				c0.1-113.3-91.7-205.3-205.1-205.4c-71.5,0-137.8,37.1-175.1,98c-2.5,4.1-7.1,6.5-11.9,6.3l-2.8-0.2c-1.5-0.1-3-0.2-4.4-0.2
				c-69.5,0.3-128.4,51.3-138.7,120c-0.9,6.5-6.5,11.3-13.1,11.3H231c-60.8,0-110.1,49.4-110.1,110.2c0,60.8,49.3,110,110.1,110.1
				h149c7.3,0,13.2,5.9,13.2,13.2S387.3,642,380,642H231c-75.4,0.1-136.6-61-136.6-136.4c-0.1-72.4,56.4-132.2,128.7-136.4
				c16.9-76.5,84.5-131.1,162.8-131.5h1c70.5-106.7,214.2-136,320.9-65.5c64.9,42.9,103.9,115.5,103.9,193.3v3.5
				c75.3,2.8,134.2,66.1,131.4,141.5C940.4,583.9,880.1,642,806.7,642z"/>
			<path d="M642.2,642H603c-7.3,0-13.2-5.9-13.2-13.2s5.9-13.2,13.2-13.2h39.2c7.3,0,13.2,5.9,13.2,13.2S649.5,642,642.2,642z"/>
		</g>
		<g>
			<path class="st0" d="M702.4,410.7c-6.1,0-12-2.8-15.8-8.1c-0.5-0.7-49.1-66.3-140.6-66.3c-0.8,0-1.5,0-2.3,0
				c-90.3,1.1-136.2,63.6-138.1,66.3c-6.3,8.8-18.5,10.8-27.2,4.5c-8.7-6.3-10.7-18.5-4.5-27.2c2.4-3.3,59.6-81.2,169.3-82.5
				c113.4-1.2,172.5,79.1,175,82.5c6.3,8.7,4.3,20.9-4.5,27.2C710.4,409.5,706.4,410.7,702.4,410.7z"/>
			<path class="st0" d="M635.4,461.5c-6.1,0-12-2.8-15.8-8.1c-1-1.4-25.9-34.4-73.5-34.4c-0.4,0-0.8,0-1.2,0
				c-47.2,0.6-71.2,33-72.2,34.4c-6.3,8.7-18.5,10.7-27.2,4.4c-8.7-6.3-10.7-18.4-4.5-27.1c1.5-2,36.5-49.8,103.4-50.6
				c0.6,0,1.1,0,1.7,0c68,0,103.7,48.5,105.1,50.6c6.3,8.7,4.3,20.9-4.4,27.2C643.3,460.3,639.4,461.5,635.4,461.5z"/>
			<path class="st0" d="M599.9,537.3c-6.1,0-12-2.8-15.9-8.1c-0.4-0.6-13.5-17.5-38-17.5c-0.2,0-0.4,0-0.6,0
				c-24.2,0.3-36.8,16.8-37.3,17.5c-6.4,8.6-18.6,10.5-27.2,4.2c-8.6-6.3-10.6-18.3-4.4-27c2.4-3.4,25.1-33.2,68.5-33.7
				c0.4,0,0.8,0,1.1,0c44.9,0,68.6,32.3,69.6,33.7c6.3,8.7,4.3,20.9-4.5,27.2C607.8,536.1,603.8,537.3,599.9,537.3z"/>
		</g>
	</g>
	<g>
		<path d="M198.2,821c0-21.5,16.4-36.7,38.8-36.7c13,0,23.5,4.7,30.3,13.3l-12.7,11.5c-4.4-5.3-9.9-8.3-16.6-8.3
			c-11.6,0-19.6,8.1-19.6,20.2c0,12.1,8.1,20.2,19.6,20.2c6.7,0,12.2-2.9,16.6-8.3l12.7,11.5c-6.9,8.6-17.3,13.3-30.3,13.3
			C214.6,857.6,198.2,842.4,198.2,821z"/>
		<path d="M275.3,781.5h19.1v74.8h-19.1V781.5z"/>
		<path d="M303.4,828.8c0-16.4,13-28.1,30.8-28.1c18,0,30.8,11.7,30.8,28.1c0,16.5-12.8,28.3-30.8,28.3
			C316.4,857.1,303.4,845.3,303.4,828.8z M345.7,828.8c0-8.3-4.9-12.9-11.5-12.9c-6.4,0-11.5,4.6-11.5,12.9c0,8.4,5,13.1,11.5,13.1
			C340.8,841.9,345.7,837.2,345.7,828.8z"/>
		<path d="M431.4,801.6v54.6h-18.2v-5.8c-4.1,4.5-10,6.8-16.2,6.8c-13.4,0-23.2-7.7-23.2-25v-30.5h19.1V829c0,8.5,3.3,11.8,9.1,11.8
			c5.6,0,10.3-3.7,10.3-12.9v-26.3H431.4z"/>
		<path d="M501.7,781.5v74.8h-18.2v-5.4c-3.6,4.3-9,6.3-16,6.3c-14.9,0-26.9-10.9-26.9-28.3c0-17.3,12-28.1,26.9-28.1
			c6.3,0,11.5,1.8,15.1,5.6v-24.9H501.7z M482.9,828.8c0-8.3-4.9-12.9-11.4-12.9c-6.5,0-11.5,4.6-11.5,12.9
			c0,8.4,4.9,13.1,11.5,13.1C477.9,841.9,482.9,837.2,482.9,828.8z"/>
		<path d="M611.3,836.9c0,12.2-10.1,19.3-29,19.3h-38.1v-70.5h36.1c18.5,0,27.6,7.6,27.6,18.4c0,6.8-3.4,12.2-9.5,15.3
			C606.4,822.3,611.3,828.3,611.3,836.9z M564,800.1v13.6h13.7c6.6,0,10.1-2.3,10.1-6.9c0-4.4-3.4-6.8-10.1-6.8H564z M591.2,834.7
			c0-4.8-3.6-7.2-10.5-7.2H564v14.3h16.7C587.6,841.8,591.2,839.5,591.2,834.7z"/>
		<path d="M672,825.9v30.3h-17.8v-7.1c-2.7,5.2-8.2,8-16.1,8c-13.1,0-20.4-7.4-20.4-16.8c0-10.1,7.4-16.3,24.3-16.3h10.9
			c-0.3-5.5-4-8.7-11.6-8.7c-5.2,0-11.1,1.8-14.8,4.7l-6.4-13c6.2-4.1,15.5-6.4,24.1-6.4C661.8,800.7,672,808.6,672,825.9z
			 M652.9,838.7V834h-8.3c-6.1,0-8.4,2.2-8.4,5.5c0,3.2,2.6,5.5,7.2,5.5C647.6,845,651.3,843,652.9,838.7z"/>
		<path d="M679.8,851.5l5.7-13.1c5,3.1,12.4,5,19,5c6.4,0,8.6-1.4,8.6-3.7c0-7.4-32.2,1-32.2-20.9c0-10.3,9.5-18.1,26.6-18.1
			c7.7,0,16.1,1.6,21.6,4.6l-5.7,13c-5.4-3-10.9-4-15.7-4c-6.4,0-8.8,1.8-8.8,3.8c0,7.6,32.1-0.6,32.1,21.1c0,10.1-9.3,17.9-27,17.9
			C694.7,857.1,685.1,854.8,679.8,851.5z"/>
		<path d="M794.7,833.8H755c1.6,5.5,6.3,8.8,13.4,8.8c5.3,0,8.9-1.5,12.6-4.7l10.1,10.5c-5.2,5.8-12.9,8.9-23.3,8.9
			c-19.4,0-32-12-32-28.3c0-16.4,12.8-28.1,30-28.1c16.1,0,29.2,10.3,29.2,28.3C795,830.4,794.8,832.2,794.7,833.8z M754.7,823.7
			h22.4c-1-5.7-5.2-9.4-11.2-9.4C760,814.3,755.8,817.9,754.7,823.7z"/>
		<path d="M861.9,781.5v74.8h-18.2v-5.4c-3.6,4.3-9,6.3-16,6.3c-14.9,0-26.9-10.9-26.9-28.3c0-17.3,12-28.1,26.9-28.1
			c6.3,0,11.5,1.8,15.1,5.6v-24.9H861.9z M843.1,828.8c0-8.3-4.9-12.9-11.4-12.9c-6.6,0-11.5,4.6-11.5,12.9
			c0,8.4,4.9,13.1,11.5,13.1C838.2,841.9,843.1,837.2,843.1,828.8z"/>
		<path d="M351.1,970.8l6.5-14.7c6.2,4.1,15.1,7,23.3,7c8.3,0,11.5-2.3,11.5-5.7c0-11.2-40.1-3-40.1-29.2
			c0-12.6,10.3-22.9,31.2-22.9c9.2,0,18.6,2.1,25.6,6.1l-6.1,14.8c-6.8-3.6-13.4-5.4-19.6-5.4c-8.4,0-11.4,2.8-11.4,6.4
			c0,10.8,40,2.7,40,28.7c0,12.3-10.3,22.8-31.2,22.8C369.2,978.5,357.7,975.4,351.1,970.8z"/>
		<path d="M476.8,922.5l-23.6,56.8c-5.7,14.1-13.8,18.2-24.6,18.2c-5.7,0-12.2-1.9-15.8-4.9l6.6-13.4c2.2,2,5.4,3.2,8.5,3.2
			c3.7,0,5.8-1.4,7.5-4.6L412,922.5h19.6l13.4,33.4l13.5-33.4H476.8z"/>
		<path d="M476.5,972.4l5.7-13.1c5,3.1,12.4,5,19,5c6.4,0,8.6-1.4,8.6-3.7c0-7.4-32.2,1-32.2-20.9c0-10.3,9.5-18.1,26.6-18.1
			c7.7,0,16.1,1.6,21.6,4.6l-5.7,13c-5.4-3-10.9-4-15.7-4c-6.4,0-8.8,1.8-8.8,3.8c0,7.6,32.1-0.6,32.1,21.1c0,10.1-9.3,17.9-27,17.9
			C491.4,978,481.9,975.7,476.5,972.4z"/>
		<path d="M573.7,974.9c-3.3,2.1-8.3,3.1-13.3,3.1c-14,0-22.2-6.9-22.2-20.9v-18.3h-8v-14.3h8v-14.2h19.1v14.2h12.5v14.3h-12.5V957
			c0,4,2.3,6.2,5.7,6.2c2.1,0,4.2-0.6,5.8-1.7L573.7,974.9z"/>
		<path d="M634.9,954.7h-39.7c1.6,5.5,6.3,8.8,13.4,8.8c5.3,0,8.9-1.5,12.6-4.7l10.1,10.5c-5.2,5.8-12.9,8.9-23.3,8.9
			c-19.4,0-32-12-32-28.3c0-16.4,12.8-28.1,30-28.1c16.1,0,29.2,10.3,29.2,28.3C635.2,951.3,635,953.2,634.9,954.7z M594.9,944.6
			h22.4c-1-5.7-5.2-9.4-11.2-9.4S596,938.8,594.9,944.6z"/>
		<path d="M737.3,945.9v31.2h-19.1V949c0-7.9-3.2-11.2-8.3-11.2c-5.5,0-9.6,3.7-9.6,12.2v27.1h-19.1V949c0-7.9-3.1-11.2-8.3-11.2
			c-5.6,0-9.7,3.7-9.7,12.2v27.1h-19.1v-54.6h18.2v5.7c4.1-4.4,9.9-6.7,16.3-6.7c7.5,0,13.8,2.7,17.6,8.6c4.3-5.4,11.1-8.6,18.9-8.6
			C727.9,921.6,737.3,929,737.3,945.9z"/>
	</g>
</g>
</svg>
