<?xml version="1.0" encoding="utf-8"?>
<!-- Generator: Adobe Illustrator 25.0.0, SVG Export Plug-In . SVG Version: 6.00 Build 0)  -->
<svg version="1.1" id="Layer_1" xmlns="http://www.w3.org/2000/svg" xmlns:xlink="http://www.w3.org/1999/xlink" x="0px" y="0px"
	 viewBox="0 0 1080 1080" style="enable-background:new 0 0 1080 1080;" xml:space="preserve">
<style type="text/css">
	.st0{fill:#F4C603;}
	.st1{fill:#141414;}
</style>
<g>
	<g>
		<g>
			<g>
				<path class="st0" d="M386.7,163.4c8,0.2,15.8,3.9,22.7,10.1c2.1,1.9,5.2,2.7,7.8,4.1c0.7-2.5,1.8-4.9,2-7.5
					c1.6-22.2,14.9-34.8,37.2-34.7c5.3,0,10.7,0,15.8,1.2c14.4,3.2,24.5,15.8,25.2,30.5c0.1,1.5-0.3,3.1,0.1,4.4
					c0.6,2.1,1.2,5,2.6,5.7c1.4,0.6,4-1,5.8-2.1c1.9-1.2,3.4-3.2,5.3-4.6c9-6.8,19-8.9,30-5.8c20.5,5.9,36.1,30.1,30.4,48.6
					c-1.9,6-6.6,11.1-9.9,16.7c-1.2,2-1.9,4.3-2.8,6.5c2,0.8,4,2.3,6,2.4c24.6,1.5,36.5,13.7,35.9,38.6c-0.2,7.6-1.4,15.8-4.7,22.5
					c-6.1,12.4-17.8,16.7-31.2,17.1c-2.1,0.1-4.1,1.3-6.1,2c0.9,2.2,1.3,4.8,2.8,6.4c15.5,16.7,15.3,35.5-1.2,51.6
					c-4.8,4.7-10,9.6-15.9,12.3c-14.1,6.3-26.8,2.5-37.9-8c-1.8-1.7-4.5-2.3-6.8-3.4c-0.9,2.4-2.4,4.8-2.5,7.3
					c-0.7,21.7-14.2,35-35.9,34.9c-4.9,0-9.8,0.3-14.6-0.6c-16.7-3.1-26.5-15.8-27.8-34.6c-0.2-2.4-1.6-4.7-2.5-7.1
					c-2.3,1.2-4.9,2-6.8,3.7c-15.4,14.4-34.8,14.2-49.8-0.7c-1.5-1.5-3-3-4.5-4.5c-15.3-15.3-15.6-34.5-1-50.3
					c1.7-1.8,2.4-4.5,3.6-6.8c-2.6-0.9-5.2-2.6-7.8-2.7c-20.8-0.6-34.5-14.4-34.5-35.1c0-4.9-0.3-9.8,0.5-14.6
					c2.7-16.9,15.6-27.3,34.6-28.6c2.5-0.2,4.8-1.5,7.3-2.3c-1.2-2.3-1.9-5-3.6-6.8c-14.5-15.4-14.4-34.8,0.4-49.8
					C367.3,167.3,374.7,163.4,386.7,163.4z M500,200.4c-1-0.2-3.6-0.4-6-1.1c-12.3-3.6-18.8-13.4-19-28.2c-0.2-9.4-3.7-13.1-13-13.4
					c-3-0.1-5.9-0.2-8.9,0.1c-7.1,0.5-10.7,4.2-11.3,11.3c-0.1,1.9-0.1,3.8-0.1,5.7c-0.4,14.3-11.9,25.6-26.2,25.6
					c-8.9,0-15.6-4.4-21.6-10.5c-4.8-4.9-10.6-5.3-15.5-1.8c-10.2,7.5-14.3,15-11,21.3c1.5,2.9,4.2,5.2,6.5,7.7
					c13.6,15,6.5,38.5-13.1,43.2c-3.8,0.9-8,0.6-12,1c-6.5,0.7-10,4.4-10.6,11.3c-1.1,13.1,1.1,19.4,7.7,21.4
					c1.4,0.4,2.9,0.4,4.4,0.5c2.1,0.1,4.2,0,6.4,0.2c14,1.3,24,12.4,24.2,26.4c0.1,8.5-3.8,14.9-9.7,20.6
					c-5.3,5.1-6.2,10.4-3.2,15.4c5.4,9,14,14.4,20.3,12.5c1.9-0.6,3.7-1.9,5.3-3.2c1.8-1.4,3.3-3.3,5.1-4.8
					c15.7-12.7,38.7-4.5,42.5,15.4c0.6,3.3-0.2,6.9,0.7,10.1c1,3.4,2.6,7.6,5.3,9.4c12.4,8,27,0.2,27.7-14.3
					c0.6-12.9,7.9-22.7,19.8-25.7c10.4-2.6,19.2,0.4,26.5,8.1c3.5,3.7,8.1,7.7,12.6,4.9c6-3.7,11.9-8.9,15.7-14.8
					c3.6-5.6-1.3-10.5-5.5-14.8c-9.3-9.4-10.9-22.6-4-33.1c5.9-9,14.5-12.6,25-12.2c5,0.2,9.3-0.8,12-5.5
					c7.7-13.4-0.1-27.5-15.3-27.8c-11.7-0.3-21.2-7.4-24.6-18.6c-3.3-10.8-0.1-19.9,7.8-27.7c7.6-7.6,7.5-12.8-0.1-20.5
					c-0.9-0.9-1.8-1.8-2.7-2.7c-7.9-7.9-13.1-8-21-0.1C515.7,197.1,509.4,200.5,500,200.4z"/>
				<path class="st0" d="M393.9,276.6c1.3-23.9,13.2-44.2,37.7-55.7c23.9-11.2,47.2-8.1,67.4,8.4c20.2,16.4,27.9,38.3,22.4,64.2
					c-1.9,9.1-7.3,13.2-14.4,11.5c-6.2-1.6-9-7.7-7.3-16c6.5-31.5-20.4-57.9-51.4-50.5c-21.5,5.1-35.4,27.2-31,49.2
					c4.5,22.2,26.2,37.1,48.3,33.2c2.1-0.4,4.2-0.8,6.2-1.2c7.1-1.1,12.1,1.8,13.6,8.1c1.4,6-1.9,12.5-8.6,13.3
					c-10.4,1.3-21.3,2.9-31.4,1.1C415.9,337,394.1,309.5,393.9,276.6z"/>
			</g>
		</g>
		<path class="st1" d="M764.1,314v13.3c0,19.4-15.9,35.3-35.3,35.3H585.2c3.1-11.2,1.6-22.9-4.6-33.9c15.5-4.3,23.5-14.1,27.7-22.6
			c3.7-7.5,5.7-16.8,6-27.6h114.4C748.2,278.6,764.1,294.6,764.1,314z"/>
		<path class="st1" d="M764.1,449.3v13.3c0,19.4-15.9,35.4-35.3,35.4H386c-19.4,0-35.3-15.9-35.3-35.4v-13.3
			c0-19.4,15.9-35.3,35.3-35.3h28.4c6.7,10.1,17,16.9,30,19.4c4.1,0.8,8.1,0.9,11.4,0.9l5.8,0c18.2,0,32.7-7.4,41.1-20.2h226.2
			C748.2,414,764.1,429.9,764.1,449.3z"/>
		<path class="st1" d="M756.4,633.3h-398c-4.3,0-7.8-3.5-7.8-7.8v-68.5c0-4.3,3.5-7.8,7.8-7.8h398c4.3,0,7.8,3.5,7.8,7.8v68.5
			C764.1,629.8,760.6,633.3,756.4,633.3z"/>
	</g>
	<g>
		<path d="M473.6,857.9l-0.2-37.4L455.2,851h-8.9l-18-29.4v36.4h-18.4v-70.5h16.4l24.8,40.7l24.2-40.7h16.4l0.2,70.5H473.6z"/>
		<path d="M560.6,835.4h-39.7c1.6,5.5,6.3,8.8,13.4,8.8c5.3,0,8.9-1.5,12.6-4.7l10.1,10.5c-5.2,5.8-12.9,8.9-23.3,8.9
			c-19.4,0-32-12-32-28.3c0-16.4,12.8-28.1,30-28.1c16.1,0,29.2,10.3,29.2,28.3C560.9,832.1,560.7,833.9,560.6,835.4z M520.6,825.4
			H543c-1-5.7-5.2-9.4-11.2-9.4C525.9,816,521.7,819.6,520.6,825.4z"/>
		<path d="M627.9,826.7v31.2h-19.1v-28.1c0-7.9-3.4-11.2-9-11.2c-6.1,0-10.9,3.8-10.9,12.9v26.4h-19.1v-54.6H588v5.9
			c4.3-4.5,10.5-6.9,17.3-6.9C618.2,802.4,627.9,809.7,627.9,826.7z"/>
		<path d="M697.4,803.3v54.6h-18.2v-5.8c-4.1,4.5-10,6.8-16.2,6.8c-13.4,0-23.2-7.7-23.2-25v-30.5h19.1v27.4
			c0,8.5,3.3,11.8,9.1,11.8c5.6,0,10.3-3.7,10.3-12.9v-26.3H697.4z"/>
		<path d="M372.5,943.6c0-21.5,16.4-36.7,38.8-36.7c13,0,23.5,4.7,30.3,13.3l-12.7,11.5c-4.4-5.3-9.9-8.3-16.6-8.3
			c-11.6,0-19.6,8.1-19.6,20.2c0,12.1,8.1,20.2,19.6,20.2c6.8,0,12.2-2.9,16.6-8.3l12.7,11.5c-6.8,8.6-17.3,13.3-30.3,13.3
			C388.9,980.2,372.5,965,372.5,943.6z"/>
		<path d="M444.4,951.4c0-16.4,13-28.1,30.8-28.1c18,0,30.8,11.7,30.8,28.1c0,16.5-12.8,28.3-30.8,28.3
			C457.4,979.7,444.4,967.9,444.4,951.4z M486.8,951.4c0-8.3-4.9-12.9-11.5-12.9c-6.4,0-11.5,4.6-11.5,12.9c0,8.4,5,13.1,11.5,13.1
			C481.8,964.5,486.8,959.8,486.8,951.4z"/>
		<path d="M573.1,947.6v31.2H554v-28.1c0-7.9-3.4-11.2-9-11.2c-6.1,0-10.9,3.8-10.9,12.9v26.4H515v-54.6h18.2v5.9
			c4.3-4.5,10.5-6.9,17.3-6.9C563.3,923.3,573.1,930.7,573.1,947.6z"/>
		<path d="M622.8,976.6c-3.3,2.1-8.3,3.1-13.3,3.1c-14,0-22.2-6.9-22.2-20.9v-18.3h-8v-14.3h8V912h19.2v14.2H619v14.3h-12.5v18.1
			c0,4,2.3,6.2,5.7,6.2c2.1,0,4.2-0.6,5.8-1.7L622.8,976.6z"/>
		<path d="M666.7,923.3v17.2c-1.7-0.2-2.9-0.3-4.3-0.3c-7.8,0-13.1,3.9-13.1,13.5v25.1h-19.1v-54.6h18.2v6.6
			C652.3,925.8,658.7,923.3,666.7,923.3z"/>
		<path d="M670.7,951.4c0-16.4,13-28.1,30.8-28.1c18,0,30.8,11.7,30.8,28.1c0,16.5-12.8,28.3-30.8,28.3
			C683.6,979.7,670.7,967.9,670.7,951.4z M713,951.4c0-8.3-4.9-12.9-11.5-12.9c-6.4,0-11.5,4.6-11.5,12.9c0,8.4,5,13.1,11.5,13.1
			C708,964.5,713,959.8,713,951.4z"/>
		<path d="M741.2,904.1h19.2v74.8h-19.2V904.1z"/>
	</g>
</g>
</svg>
