<?xml version="1.0" encoding="utf-8"?>
<!-- Generator: Adobe Illustrator 25.0.0, SVG Export Plug-In . SVG Version: 6.00 Build 0)  -->
<svg version="1.1" id="Layer_1" xmlns="http://www.w3.org/2000/svg" xmlns:xlink="http://www.w3.org/1999/xlink" x="0px" y="0px"
	 viewBox="0 0 1080 1080" style="enable-background:new 0 0 1080 1080;" xml:space="preserve">
<style type="text/css">
	.st0{fill:#F4C603;}
	.st1{fill:#141414;}
</style>
<g>
	<g>
		<g>
			<g>
				<path class="st0" d="M557.3,422.3c-0.8-5.5-5.9-9.3-11.4-8.5c-26.5,3.9-49.2,20.7-60.7,45c-2.4,5-0.2,11,4.7,13.4
					c1.4,0.6,2.8,1,4.3,1c3.7,0,7.4-2.1,9.1-5.7c8.7-18.2,25.7-30.9,45.5-33.8C554.3,432.9,558.1,427.8,557.3,422.3z"/>
			</g>
		</g>
		<g>
			<g>
				<g>
					<path d="M795,355.7L564.6,135.2c-3.9-3.7-10-3.7-13.8,0L320.2,355.7c-2.9,2.8-3.9,7.2-2.4,11c1.5,3.8,5.2,6.3,9.3,6.3h50.1
						v230.5c0,5.5,4.5,10,10,10H728c5.5,0,10-4.5,10-10V372.9h50.1c4.1,0,7.8-2.5,9.3-6.3C798.9,362.8,798,358.5,795,355.7z
						 M728,352.9c-5.5,0-10,4.5-10,10v230.5H397.3V362.9c0-5.5-4.5-10-10-10h-35.2l205.5-196.6l205.5,196.6H728z"/>
				</g>
			</g>
			<g>
				<g>
					<path class="st0" d="M695,476.1c-3.9-3.9-10.3-3.9-14.2,0l-8.3,8.3c-5.7,5.7-13.2,8.8-21.3,8.8H464c-8,0-15.6-3.1-21.3-8.8
						l-8.3-8.3c-3.9-3.9-10.3-3.9-14.2,0c-3.9,3.9-3.9,10.3,0,14.2l8.3,8.3c9.5,9.5,22,14.7,35.4,14.7h187.2
						c13.4,0,26-5.2,35.5-14.7l8.3-8.3C698.9,486.3,698.9,480,695,476.1z"/>
				</g>
			</g>
			<g>
				<g>
					<path class="st0" d="M557.6,372.9c-66.3,0-120.2,53.9-120.2,120.2c0,5.5,4.5,10,10,10s10-4.5,10-10
						c0-55.3,45-100.2,100.2-100.2s100.2,45,100.2,100.2c0,5.5,4.5,10,10,10s10-4.5,10-10C677.9,426.9,624,372.9,557.6,372.9z"/>
				</g>
			</g>
		</g>
		<g>
			<g>
				<path class="st0" d="M557.6,352.9c-11,0-20,9-20,20c0,11,9,20,20,20c11,0,20-9,20-20S568.7,352.9,557.6,352.9z"/>
			</g>
		</g>
	</g>
	<g>
		<path d="M419.1,871.4l-0.2-37.4l-18.1,30.4h-8.9l-18-29.4v36.4h-18.4v-70.5h16.4l24.8,40.7l24.2-40.7h16.4l0.2,70.5H419.1z"/>
		<path d="M501.8,841.1v30.3H484v-7.1c-2.7,5.2-8.2,8-16.1,8c-13.1,0-20.4-7.4-20.4-16.8c0-10.1,7.4-16.3,24.3-16.3h10.9
			c-0.3-5.5-4-8.7-11.6-8.7c-5.2,0-11.1,1.8-14.8,4.7l-6.4-13c6.2-4.1,15.5-6.4,24.1-6.4C491.6,815.9,501.8,823.7,501.8,841.1z
			 M482.7,853.9v-4.7h-8.3c-6.1,0-8.4,2.2-8.4,5.5c0,3.2,2.6,5.5,7.2,5.5C477.4,860.2,481.2,858.2,482.7,853.9z"/>
		<path d="M572,840.2v31.2h-19.1v-28.1c0-7.9-3.4-11.2-9-11.2c-6.1,0-10.9,3.8-10.9,12.9v26.4h-19.1v-54.6h18.2v5.9
			c4.3-4.5,10.5-6.9,17.3-6.9C562.3,815.9,572,823.2,572,840.2z"/>
		<path d="M635.2,841.1v30.3h-17.8v-7.1c-2.7,5.2-8.2,8-16.1,8c-13.1,0-20.4-7.4-20.4-16.8c0-10.1,7.4-16.3,24.3-16.3h10.9
			c-0.3-5.5-4-8.7-11.6-8.7c-5.2,0-11.1,1.8-14.8,4.7l-6.4-13c6.2-4.1,15.5-6.4,24.1-6.4C625,815.9,635.2,823.7,635.2,841.1z
			 M616.1,853.9v-4.7h-8.3c-6.1,0-8.4,2.2-8.4,5.5c0,3.2,2.6,5.5,7.2,5.5C610.8,860.2,614.6,858.2,616.1,853.9z"/>
		<path d="M706.9,816.8v44.6c0,20.7-11.7,30.4-32,30.4c-10.5,0-20.5-2.4-27.1-7.2l7-13.4c4.5,3.6,12,5.8,18.4,5.8
			c10.3,0,14.6-4.6,14.6-13.2v-1.8c-3.7,4.3-9.3,6.4-16.2,6.4c-14.5,0-26.8-10.3-26.8-26.4c0-16,12.3-26.3,26.8-26.3
			c7.6,0,13.4,2.4,17.1,7.6v-6.7H706.9z M687.9,842.2c0-6.7-5-11.1-11.9-11.1c-6.9,0-12,4.4-12,11.1c0,6.6,5.1,11.2,12,11.2
			C682.9,853.4,687.9,848.8,687.9,842.2z"/>
		<path d="M774.7,848.9H735c1.6,5.5,6.3,8.8,13.4,8.8c5.3,0,8.9-1.5,12.6-4.7l10.1,10.5c-5.2,5.8-12.9,8.9-23.3,8.9
			c-19.4,0-32-12-32-28.3c0-16.4,12.8-28.1,30-28.1c16.1,0,29.2,10.3,29.2,28.3C775,845.6,774.8,847.4,774.7,848.9z M734.7,838.9
			H757c-1-5.7-5.2-9.4-11.2-9.4C739.9,829.5,735.8,833.1,734.7,838.9z"/>
		<path d="M290.6,973.6h-10.9v18.7h-20v-70.5H292c19.2,0,31.3,10,31.3,26.1c0,10.4-5,18-13.8,22.3l15.2,22.2h-21.4L290.6,973.6z
			 M290.8,937.5h-11.1v20.7h11.1c8.3,0,12.4-3.8,12.4-10.3C303.2,941.3,299,937.5,290.8,937.5z"/>
		<path d="M388.9,969.8h-39.7c1.6,5.5,6.3,8.8,13.4,8.8c5.3,0,8.9-1.5,12.6-4.7l10.1,10.5c-5.2,5.8-12.9,8.9-23.3,8.9
			c-19.4,0-32-12-32-28.3c0-16.4,12.8-28.1,30-28.1c16.1,0,29.2,10.3,29.2,28.3C389.2,966.5,389,968.3,388.9,969.8z M348.9,959.8
			h22.4c-1-5.7-5.2-9.4-11.2-9.4S350,954,348.9,959.8z"/>
		<path d="M393.7,987.6l5.7-13.1c5,3.1,12.4,5,19,5c6.4,0,8.6-1.4,8.6-3.7c0-7.4-32.2,1-32.2-20.9c0-10.3,9.5-18.1,26.6-18.1
			c7.7,0,16.1,1.6,21.6,4.6l-5.7,13c-5.4-3-10.9-4-15.7-4c-6.4,0-8.8,1.8-8.8,3.8c0,7.6,32.1-0.6,32.1,21.1c0,10.1-9.3,17.9-27,17.9
			C408.7,993.2,399.1,990.9,393.7,987.6z"/>
		<path d="M490.9,990.1c-3.3,2.1-8.3,3.1-13.3,3.1c-14,0-22.2-6.9-22.2-20.9V954h-8v-14.3h8v-14.2h19.1v14.2h12.5V954h-12.5v18.1
			c0,4,2.3,6.2,5.7,6.2c2.1,0,4.2-0.6,5.8-1.7L490.9,990.1z"/>
		<path d="M549.4,962v30.3h-17.8v-7.1c-2.7,5.2-8.2,8-16.1,8c-13.1,0-20.4-7.4-20.4-16.8c0-10.1,7.4-16.3,24.3-16.3h10.9
			c-0.3-5.5-4-8.7-11.6-8.7c-5.2,0-11.1,1.8-14.8,4.7l-6.4-13c6.2-4.1,15.5-6.4,24.1-6.4C539.2,936.8,549.4,944.7,549.4,962z
			 M530.3,974.8V970H522c-6.1,0-8.4,2.2-8.4,5.5c0,3.2,2.6,5.5,7.2,5.5C525,981.1,528.8,979.1,530.3,974.8z"/>
		<path d="M618.9,937.7v54.6h-18.2v-5.8c-4.1,4.5-10,6.8-16.2,6.8c-13.4,0-23.2-7.7-23.2-25v-30.5h19.1v27.4
			c0,8.5,3.3,11.8,9.1,11.8c5.6,0,10.3-3.7,10.3-12.9v-26.3H618.9z"/>
		<path d="M667.8,936.8V954c-1.7-0.2-2.9-0.3-4.3-0.3c-7.8,0-13.1,3.9-13.1,13.5v25.1h-19.1v-54.6h18.2v6.6
			C653.4,939.3,659.8,936.8,667.8,936.8z"/>
		<path d="M726.5,962v30.3h-17.8v-7.1c-2.7,5.2-8.2,8-16.1,8c-13.1,0-20.4-7.4-20.4-16.8c0-10.1,7.4-16.3,24.3-16.3h10.9
			c-0.3-5.5-4-8.7-11.6-8.7c-5.2,0-11.1,1.8-14.8,4.7l-6.4-13c6.2-4.1,15.5-6.4,24.1-6.4C716.3,936.8,726.5,944.7,726.5,962z
			 M707.3,974.8V970h-8.3c-6.1,0-8.4,2.2-8.4,5.5c0,3.2,2.6,5.5,7.2,5.5C702.1,981.1,705.8,979.1,707.3,974.8z"/>
		<path d="M796.7,961.1v31.2h-19.1v-28.1c0-7.9-3.4-11.2-9-11.2c-6.1,0-10.9,3.8-10.9,12.9v26.4h-19.1v-54.6h18.2v5.9
			c4.3-4.5,10.5-6.9,17.3-6.9C786.9,936.8,796.7,944.1,796.7,961.1z"/>
		<path d="M846.4,990.1c-3.3,2.1-8.3,3.1-13.3,3.1c-14,0-22.2-6.9-22.2-20.9V954h-8v-14.3h8v-14.2H830v14.2h12.5V954H830v18.1
			c0,4,2.3,6.2,5.7,6.2c2.1,0,4.2-0.6,5.8-1.7L846.4,990.1z"/>
		<path d="M849.4,987.6l5.7-13.1c5,3.1,12.4,5,19,5c6.4,0,8.6-1.4,8.6-3.7c0-7.4-32.2,1-32.2-20.9c0-10.3,9.5-18.1,26.6-18.1
			c7.7,0,16.1,1.6,21.6,4.6l-5.7,13c-5.4-3-10.9-4-15.7-4c-6.4,0-8.8,1.8-8.8,3.8c0,7.6,32.1-0.6,32.1,21.1c0,10.1-9.3,17.9-27,17.9
			C864.3,993.2,854.7,990.9,849.4,987.6z"/>
	</g>
</g>
</svg>
