<?xml version="1.0" encoding="utf-8"?>
<!-- Generator: Adobe Illustrator 25.0.0, SVG Export Plug-In . SVG Version: 6.00 Build 0)  -->
<svg version="1.1" id="Layer_1" xmlns="http://www.w3.org/2000/svg" xmlns:xlink="http://www.w3.org/1999/xlink" x="0px" y="0px"
	 viewBox="0 0 1080 1080" style="enable-background:new 0 0 1080 1080;" xml:space="preserve">
<style type="text/css">
	.st0{fill:#F4C603;}
	.st1{fill:#141414;}
</style>
<g>
	<g>
		<g>
			<g>
				<path d="M570.4,498.2c0-29.3-0.3-57.5,0.1-85.7c0.3-21.3,17.8-34.7,37.2-29.3c12.8,3.6,20.9,14.4,21.2,29.4
					c0.3,14.4,0.1,28.8,0.1,42.7c9,0.6,17.7-0.4,24.9,2.3c6.9,2.6,12.4,9.1,19.6,14.8c16.5-6.3,31.5-2.4,41.3,15
					c24.1-6.3,38.9,0,44.3,18.4c0.4,1.4,1,2.8,1,4.2c0.1,35,0,70.1,0,105.8c-4.7,0-8.8,0-14.5,0c0-8.5,0-16.7,0-24.9
					c0-25,0-49.9-0.2-74.9c-0.1-10.3-5.8-17-14.1-17.2c-8.4-0.2-14.3,6.4-14.6,16.7c-0.2,6.1,0,12.2,0,19.1c-5.1,0-9.2,0-14.9,0
					c0-9.8,0-19.5,0-29.1c0-13.8-5.1-21.1-14.7-21.1c-9.5,0-14.2,7-14.2,21.4c0,9.3,0,18.7,0,28.9c-5.1,0-9.1,0-14.8,0
					c0-15.2,0.1-30.3,0-45.4c-0.1-12.6-5.7-19.6-15.4-19.2c-9.1,0.3-13.7,6.8-13.8,19.5c-0.1,12.7-0.2,25.3-0.1,38
					c0,5.2-1.5,8-7.4,8c-6.1,0.1-7.2-2.9-7.2-8c0.1-36.2,0-72.4,0-108.6c0-3.9,0.9-9-1.2-11.6c-3.4-4.4-9.1-10.1-13.4-9.8
					c-5,0.4-10.1,6.3-13.9,10.8c-1.8,2.2-0.7,7-0.7,10.6c0,48.5,0,97,0,145.5c0,4.3,0,8.6,0,13.7c-5.1,0-9.2,0-14.4,0
					c0-21,0-41.9,0-62.5c-20.6-5.8-29.3,0.5-29.4,20.1c0,5.4,0.1,10.9,0,16.3c-0.5,21-2.2,42.2,14.9,60.1c-5.2,3-8.7,5.1-15.1,8.9
					c-6.4-16.2-12.4-31.4-19.4-49.2c-4.6,0-12.8,0-21,0c-24.6,0-49.2,0.1-73.8,0c-21.2-0.2-31.2-10.3-31.2-31.5
					c-0.1-105.3-0.1-210.6,0-315.9c0-3.2,0.4-6.3,0.6-10c4.5,0,8.4,0,14.3,0c0,4.7,0,9.2,0,13.7c0,103.1,0,206.3,0.1,309.4
					c0,16.9,2.7,19.5,19.5,19.5c31.4,0,62.9,0,96.5,0c0-7.7,0-14.7,0-21.7c0.1-25.9,9.8-35.8,36-36.7
					C564.6,498.7,566.7,498.5,570.4,498.2z"/>
				<path d="M672.6,447.1c-4.6,0-8.4,0-14.1,0c0-4.6,0-8.7,0-12.8c0-88.6,0-177.3,0-265.9c0-17.1-2.5-19.6-19.3-19.7
					c-12.6,0-25.1,0-39,0c0,5.8,0.2,10.4,0,15c-0.8,15.4-10.8,26.1-26.2,26.4c-26.8,0.6-53.5,0.5-80.3,0c-16-0.3-26-10.9-26.8-26.9
					c-0.2-4.3,0-8.6,0-14.3c-16.2,0-31.3-0.8-46.2,0.6c-3.7,0.3-8.8,7.3-9.6,11.8c-1.6,8.4-0.5,17.3-0.5,26c0,13.1,0,13.1-14.3,11.2
					c0-14.2-1.1-28.7,0.3-42.9c1.4-13.8,13.4-21.8,29.2-21.8c49.6-0.1,99.1,0,148.7,0c23.5,0,47-0.2,70.5,0.1
					c16.8,0.2,28.3,11.1,28.3,27.8c0.2,93.7,0.1,187.4,0.1,281.1C673.3,443.8,673,444.9,672.6,447.1z M585.4,149.5
					c-34.7,0-68.8,0-102.8,0c-3.3,17.9,0,25.6,12,25.8c26,0.4,52.1,0.2,78.1,0.1c7.7,0,12-4.4,12.6-12.1
					C585.6,159.3,585.4,155.3,585.4,149.5z"/>
				<path class="st0" d="M625.8,318.4c0.1,3.6,0.1,7.2,0.2,10.9c-61.2,0-121.8,0-183,0c-0.2-3.6,0.3-7.5,0-11.1
					c2.1-0.4,4.1-1.1,6.3-3.3c2.7-2.7,3.2-6.1,3.4-7.1c8.7-35.2,29.9-57.7,65.7-66c0.7-0.2,3.4-3.9,8.3-6.3c4.1-2,6.9-2.1,7.9-2.2
					c2.9,0,5,0.8,6.8,1.5c2.2,0.9,6.3,2.9,10.1,7.2c7.3,1.6,25,6.5,40.8,22.1c17,16.7,21.8,35.9,23.2,43.1
					C618.9,310.9,622.4,314.7,625.8,318.4z M600.5,314.8c-2.2-35.6-34.7-61.8-72.2-59.5c-31.7,2-61.6,31.2-60,59.5
					C512.1,314.8,556,314.8,600.5,314.8z"/>
			</g>
		</g>
		<rect x="441.6" y="421" class="st0" width="83.7" height="12.9"/>
		<rect x="441.6" y="447.1" class="st0" width="83.7" height="12.9"/>
		<rect x="441.6" y="473.3" class="st0" width="83.7" height="12.9"/>
	</g>
	<g>
		<path d="M277.9,801.4h19.8v54.2H331v15.7h-53.1V801.4z"/>
		<path d="M335.8,801.1c0-5.7,4.6-10.1,11.6-10.1s11.6,4.1,11.6,9.8c0,6-4.6,10.4-11.6,10.4S335.8,806.8,335.8,801.1z M337.9,817.2
			h19v54.1h-19V817.2z"/>
		<path d="M426.1,817.2l-22.4,54.1h-19.6l-22.3-54.1h19.5l13,33.1l13.7-33.1H426.1z"/>
		<path d="M484.5,849.1h-39.3c1.6,5.5,6.3,8.7,13.3,8.7c5.3,0,8.8-1.5,12.5-4.7l10,10.4c-5.2,5.8-12.8,8.8-23.1,8.8
			c-19.3,0-31.7-11.9-31.7-28.1c0-16.3,12.7-27.9,29.8-27.9c16,0,29,10.2,29,28.1C484.8,845.8,484.6,847.6,484.5,849.1z
			 M444.9,839.1h22.2c-1-5.7-5.2-9.3-11.1-9.3C450.1,829.8,446,833.4,444.9,839.1z"/>
		<path d="M538.5,817.1H517v-15.7h62.6v15.7h-21.4v54.2h-19.8V817.1z"/>
		<path d="M634.2,841.3v30.1h-17.7v-7c-2.7,5.2-8.1,7.9-16,7.9c-13,0-20.2-7.3-20.2-16.7c0-10,7.3-16.2,24.1-16.2h10.8
			c-0.3-5.5-4-8.6-11.5-8.6c-5.2,0-11,1.8-14.7,4.7l-6.4-12.9c6.2-4.1,15.4-6.3,23.9-6.3C624.1,816.3,634.2,824.1,634.2,841.3z
			 M615.2,854v-4.7H607c-6.1,0-8.3,2.2-8.3,5.5c0,3.2,2.6,5.5,7.1,5.5C610,860.2,613.7,858.2,615.2,854z"/>
		<path d="M706.8,844.2c0,17.3-11.9,28.1-26.6,28.1c-7.1,0-12.4-2-16-6.3v5.4h-18.1v-74.1h19v24.7c3.7-3.8,8.8-5.6,15.1-5.6
			C694.9,816.3,706.8,827,706.8,844.2z M687.6,844.2c0-8.2-5-12.8-11.4-12.8c-6.4,0-11.4,4.6-11.4,12.8c0,8.3,5,13,11.4,13
			C682.6,857.2,687.6,852.5,687.6,844.2z"/>
		<path d="M715.6,797.2h19v74.1h-19V797.2z"/>
		<path d="M801.8,849.1h-39.3c1.6,5.5,6.3,8.7,13.3,8.7c5.3,0,8.8-1.5,12.5-4.7l10,10.4c-5.2,5.8-12.8,8.8-23.1,8.8
			c-19.3,0-31.7-11.9-31.7-28.1c0-16.3,12.7-27.9,29.8-27.9c16,0,29,10.2,29,28.1C802.1,845.8,801.9,847.6,801.8,849.1z
			 M762.2,839.1h22.2c-1-5.7-5.2-9.3-11.1-9.3S763.3,833.4,762.2,839.1z"/>
		<path d="M339.4,936.9H318v-15.7h62.6v15.7h-21.4v54.2h-19.8V936.9z"/>
		<path d="M422.2,936.1v17.1c-1.7-0.2-2.9-0.3-4.3-0.3c-7.7,0-13,3.9-13,13.4v24.9h-19V937H404v6.5
			C407.9,938.6,414.2,936.1,422.2,936.1z"/>
		<path d="M480.3,961.1v30.1h-17.7v-7c-2.7,5.2-8.1,7.9-16,7.9c-13,0-20.2-7.3-20.2-16.7c0-10,7.3-16.2,24.1-16.2h10.8
			c-0.3-5.5-4-8.6-11.5-8.6c-5.2,0-11,1.8-14.7,4.7l-6.4-12.9c6.2-4.1,15.4-6.3,23.9-6.3C470.2,936.1,480.3,943.9,480.3,961.1z
			 M461.3,973.8v-4.7h-8.2c-6.1,0-8.3,2.2-8.3,5.5c0,3.2,2.6,5.5,7.1,5.5C456.1,980.1,459.8,978.1,461.3,973.8z"/>
		<path d="M489.7,964c0-16.3,12.9-27.9,31-27.9c12.3,0,21.7,5.5,25.4,14.9l-14.7,7.5c-2.6-5.1-6.4-7.3-10.8-7.3
			c-6.6,0-11.8,4.6-11.8,12.8c0,8.4,5.2,13,11.8,13c4.4,0,8.2-2.2,10.8-7.3l14.7,7.5c-3.7,9.4-13.1,14.9-25.4,14.9
			C502.6,992,489.7,980.5,489.7,964z"/>
		<path d="M577.6,972.2l-5.6,5.7v13.3h-19v-74.1h19v38.8l19.4-18.9h22.5l-22.5,23.2l24.4,30.9h-23L577.6,972.2z"/>
		<path d="M619.3,920.9c0-5.7,4.6-10.1,11.6-10.1c7,0,11.6,4.1,11.6,9.8c0,6-4.6,10.4-11.6,10.4C623.9,931,619.3,926.6,619.3,920.9z
			 M621.4,937h19v54.1h-19V937z"/>
		<path d="M710.2,960.2v30.9h-19v-27.9c0-7.8-3.4-11.1-8.9-11.1c-6.1,0-10.8,3.8-10.8,12.8v26.2h-19V937h18.1v5.9
			c4.3-4.5,10.4-6.8,17.2-6.8C700.5,936.1,710.2,943.4,710.2,960.2z"/>
		<path d="M781.1,937v44.2c0,20.5-11.6,30.2-31.8,30.2c-10.4,0-20.3-2.4-26.9-7.1l6.9-13.3c4.5,3.6,11.9,5.8,18.3,5.8
			c10.2,0,14.5-4.6,14.5-13.1v-1.8c-3.7,4.3-9.2,6.4-16.1,6.4c-14.4,0-26.6-10.2-26.6-26.2c0-15.9,12.2-26.1,26.6-26.1
			c7.5,0,13.3,2.4,17,7.5V937H781.1z M762.3,962.2c0-6.6-5-11-11.8-11c-6.8,0-11.9,4.4-11.9,11c0,6.6,5.1,11.1,11.9,11.1
			C757.3,973.3,762.3,968.8,762.3,962.2z"/>
	</g>
</g>
</svg>
