<?xml version="1.0" encoding="utf-8"?>
<!-- Generator: Adobe Illustrator 25.0.0, SVG Export Plug-In . SVG Version: 6.00 Build 0)  -->
<svg version="1.1" id="Layer_1" xmlns="http://www.w3.org/2000/svg" xmlns:xlink="http://www.w3.org/1999/xlink" x="0px" y="0px"
	 viewBox="0 0 1080 1080" style="enable-background:new 0 0 1080 1080;" xml:space="preserve">
<style type="text/css">
	.st0{fill:#F4C603;}
	.st1{fill:#141414;}
</style>
<g>
	<g>
		<g>
			<g>
				<path d="M690.8,316.3c-69.2-18.5-139.8,6.8-180.4,65.4c-5.1,7.3-8.9,10.2-18.3,6c-41.1-18.4-82.4-36.6-124.3-53.3
					c-13.8-5.5-7.1-15.2-9.2-23.4c-2.1-8.6,3.8-10.7,9.8-13.3c42.8-18.2,85.6-36.4,128.2-55.1c7.4-3.3,12.1-2.7,17.7,3.2
					c4.2,4.5,9.9,8,15.5,10.8c24.7,11.9,56.9,5,75.7-15.9c19.6-21.9,22.1-54,6.2-79.4c-14.6-23.4-43.6-34-72.6-26.7
					c-26.2,6.6-46.5,31.7-46.7,59.7c-0.1,9.3-3.3,13.2-11.6,16.7c-42.1,17.5-84,35.7-125.7,54c-7.8,3.4-12.8,3.8-19.7-3.4
					c-34.5-35.9-98-27.2-120.8,15.8c-19.4,36.6-11.1,75.7,21.3,100.5c30.3,23.2,71.8,19.9,101-9c5.7-5.6,9.8-5.5,16.3-2.6
					c41.4,18.1,82.8,36.1,124.4,53.7c1.8,0.8,5.5,2.1,7.7,5.7c3.9,6.4-0.2,13.8-3.4,27.9c-1.1,4.8-2.4,12.1-2.9,21.5
					c-0.8,102.9,93.2,182.1,196.5,164.8c74-12.4,133.7-79,136.9-152.9C815.8,407.1,765.4,336.3,690.8,316.3z M557.6,167.6
					c15.2,0.2,29.4,14.7,29.4,29.9c-0.1,15.2-14.5,29.6-29.7,29.6c-16.4,0-30.2-14.1-29.8-30.5C527.9,180.7,541.8,167.4,557.6,167.6
					z M282,357.5c-23,0.2-41.5-17.8-41.8-40.8c-0.4-23,17.7-41.5,40.8-41.7c23-0.3,41.8,17.9,42.1,40.7
					C323.4,338,304.5,357.2,282,357.5z M646,594.1c-63.8,0-115.6-51.8-115.6-115.6S582.2,362.9,646,362.9s115.6,51.7,115.6,115.6
					S709.9,594.1,646,594.1z"/>
			</g>
		</g>
		<g>
			<path d="M714.2,553.7H583.7c3.3-33.1,31.3-58.9,65.2-58.9S710.9,520.6,714.2,553.7z"/>
			<circle class="st0" cx="649" cy="459.6" r="30.3"/>
		</g>
	</g>
	<g>
		<path d="M543.5,884c-4.5,5.5-11.1,8.4-18.8,8.4c-10.9,0-18.1-3.7-29.4-15.5c-17.7-3-29.9-16.6-29.9-34.4
			c0-20.2,15.8-34.9,37.3-34.9c21.5,0,37.3,14.8,37.3,34.9c0,15.3-9.1,27.4-22.8,32.4c2.7,2.9,5,3.8,7.9,3.8c3.6,0,7.2-1.6,10.2-4.7
			L543.5,884z M502.7,861.8c10.2,0,18.1-7.6,18.1-19.2c0-11.6-8-19.2-18.1-19.2c-10.2,0-18.1,7.6-18.1,19.2
			C484.5,854.2,492.5,861.8,502.7,861.8z"/>
		<path d="M546.5,842.6c0-20.2,15.8-34.9,37.3-34.9c21.5,0,37.3,14.8,37.3,34.9c0,20.2-15.8,34.9-37.3,34.9
			C562.4,877.6,546.5,862.8,546.5,842.6z M602,842.6c0-11.6-8-19.2-18.1-19.2c-10.2,0-18.1,7.6-18.1,19.2c0,11.6,8,19.2,18.1,19.2
			C594,861.8,602,854.2,602,842.6z"/>
		<path d="M328.1,961.6v29.7h-18.2v-26.8c0-7.5-3.1-10.7-7.9-10.7c-5.3,0-9.1,3.5-9.1,11.6v25.8h-18.2v-26.8c0-7.5-3-10.7-7.9-10.7
			c-5.4,0-9.2,3.5-9.2,11.6v25.8h-18.2v-52h17.4v5.5c3.9-4.2,9.4-6.3,15.5-6.3c7.1,0,13.1,2.6,16.8,8.2c4.1-5.2,10.6-8.2,18-8.2
			C319.1,938.5,328.1,945.5,328.1,961.6z"/>
		<path d="M388.3,962.5v28.9h-17v-6.7c-2.6,5-7.8,7.6-15.4,7.6c-12.5,0-19.4-7-19.4-16c0-9.6,7-15.5,23.1-15.5h10.4
			c-0.3-5.3-3.8-8.3-11-8.3c-5,0-10.6,1.7-14.1,4.5l-6.1-12.4c5.9-3.9,14.8-6,22.9-6C378.6,938.5,388.3,946,388.3,962.5z
			 M370.1,974.7v-4.5h-7.9c-5.9,0-8,2.1-8,5.3c0,3.1,2.5,5.3,6.8,5.3C365.1,980.7,368.7,978.8,370.1,974.7z"/>
		<path d="M434.7,938.5v16.4c-1.6-0.2-2.8-0.3-4.1-0.3c-7.4,0-12.5,3.7-12.5,12.9v23.9h-18.2v-52h17.4v6.2
			C421,940.9,427,938.5,434.7,938.5z"/>
		<path d="M465.8,973.1l-5.4,5.5v12.8h-18.2v-71.2h18.2v37.3l18.6-18.1h21.6L479,961.6l23.4,29.7h-22.1L465.8,973.1z"/>
		<path d="M558.6,970h-37.8c1.5,5.3,6,8.3,12.8,8.3c5.1,0,8.4-1.4,12-4.5l9.6,10c-5,5.6-12.3,8.4-22.2,8.4
			c-18.5,0-30.5-11.4-30.5-27c0-15.6,12.2-26.8,28.6-26.8c15.4,0,27.8,9.8,27.8,27C558.9,966.8,558.7,968.5,558.6,970z M520.5,960.4
			h21.3c-1-5.5-5-8.9-10.7-8.9C525.5,951.5,521.5,954.9,520.5,960.4z"/>
		<path d="M603.2,989.3c-3.2,2-7.9,3-12.7,3c-13.3,0-21.1-6.5-21.1-19.9v-17.5h-7.6v-13.6h7.6v-13.5h18.2v13.5h11.9v13.6h-11.9v17.3
			c0,3.8,2.2,5.9,5.5,5.9c2,0,4-0.6,5.6-1.6L603.2,989.3z"/>
		<path d="M668.5,965.4c0,16.5-11.4,26.9-25.5,26.9c-6,0-10.9-1.8-14.5-5.5v23.2h-18.2v-70.6h17.4v5.2c3.5-4.1,8.5-6,15.4-6
			C657,938.5,668.5,948.9,668.5,965.4z M650,965.4c0-7.9-4.8-12.4-10.9-12.4s-10.9,4.5-10.9,12.4c0,7.9,4.8,12.4,10.9,12.4
			S650,973.2,650,965.4z"/>
		<path d="M676.9,920.2h18.2v71.2h-18.2V920.2z"/>
		<path d="M755.7,962.5v28.9h-17v-6.7c-2.6,5-7.8,7.6-15.4,7.6c-12.5,0-19.4-7-19.4-16c0-9.6,7-15.5,23.1-15.5h10.4
			c-0.3-5.3-3.8-8.3-11-8.3c-5,0-10.6,1.7-14.1,4.5l-6.1-12.4c5.9-3.9,14.8-6,22.9-6C746,938.5,755.7,946,755.7,962.5z M737.5,974.7
			v-4.5h-7.9c-5.9,0-8,2.1-8,5.3c0,3.1,2.5,5.3,6.8,5.3C732.5,980.7,736,978.8,737.5,974.7z"/>
		<path d="M764.7,965.3c0-15.6,12.4-26.8,29.8-26.8c11.8,0,20.8,5.3,24.4,14.3l-14.1,7.2c-2.5-4.9-6.1-7-10.4-7
			c-6.3,0-11.3,4.4-11.3,12.3c0,8.1,5,12.5,11.3,12.5c4.2,0,7.9-2.1,10.4-7l14.1,7.2c-3.5,9-12.6,14.3-24.4,14.3
			C777.1,992.2,764.7,981.1,764.7,965.3z"/>
		<path d="M878.2,970h-37.8c1.5,5.3,6,8.3,12.8,8.3c5.1,0,8.4-1.4,12-4.5l9.6,10c-5,5.6-12.3,8.4-22.2,8.4
			c-18.5,0-30.5-11.4-30.5-27c0-15.6,12.2-26.8,28.6-26.8c15.4,0,27.8,9.8,27.8,27C878.4,966.8,878.2,968.5,878.2,970z M840.1,960.4
			h21.3c-1-5.5-5-8.9-10.7-8.9C845,951.5,841.1,954.9,840.1,960.4z"/>
	</g>
</g>
</svg>
