<?xml version="1.0" encoding="utf-8"?>
<!-- Generator: Adobe Illustrator 25.0.0, SVG Export Plug-In . SVG Version: 6.00 Build 0)  -->
<svg version="1.1" id="Layer_1" xmlns="http://www.w3.org/2000/svg" xmlns:xlink="http://www.w3.org/1999/xlink" x="0px" y="0px"
	 viewBox="0 0 1080 1080" style="enable-background:new 0 0 1080 1080;" xml:space="preserve">
<style type="text/css">
	.st0{fill:#F4C603;}
	.st1{fill:#141414;}
</style>
<g>
	<g>
		<g>
			<path d="M830,262c-6.1-28.5-20.5-54.3-42.9-76.6c-60.5-60.3-159-60.3-219.5,0c-19.2,19.1-44.7,14.3-59,0
				c-22.6-22.5-51.2-37.3-82.7-42.8c-30.8-5.4-62.1-1.5-90.5,11.1c-5.8,2.6-8.4,9.4-5.9,15.2c2.6,5.8,9.4,8.4,15.2,5.9
				c49.9-22.2,109.2-11.3,147.6,27c12.8,12.8,29.3,19.2,45.8,19.2c16.5,0,32.9-6.4,45.8-19.2c51.5-51.4,135.4-51.4,186.9,0
				c36.8,36.6,47.9,83.1,33.2,138.2c-20.7,77.5-85.3,148.8-122,184.4c-50.9,49.4-108.1,89.1-143.9,99.9
				c-31.1-9.5-79.9-41.6-125.7-82.9C356.5,491,312.3,434.5,288,382.3c-25.3-54.3-28.8-101.9-10.3-141.5c2.7-5.8,0.2-12.6-5.6-15.3
				c-5.8-2.7-12.6-0.2-15.3,5.6c-21.5,46.1-18,100.2,10.3,161c25.6,55,71.8,114.1,129.9,166.5c50.6,45.6,103.5,79.7,138.2,88.9
				c1,0.3,2,0.4,3,0.4c1,0,2-0.1,3-0.4c39.7-10.6,101.3-52.4,157-106.5c38.4-37.2,106-112.1,128.2-194.9
				C834.3,316.1,835.6,287.8,830,262z"/>
			<path class="st0" d="M297.3,205.2c6.4,0,11.5-5.2,11.5-11.5s-5.2-11.5-11.5-11.5h0c-6.4,0-11.5,5.2-11.5,11.5
				S290.9,205.2,297.3,205.2z"/>
		</g>
		<g>
			<path class="st0" d="M510.3,348.6c0-15.1,12.3-27.4,27.4-27.4c15.1,0,27.4,12.2,27.4,27.4S552.8,376,537.7,376
				C522.6,376,510.3,363.7,510.3,348.6z"/>
			<path class="st0" d="M623.4,373.2c0-11.4,9.2-20.6,20.6-20.6c11.4,0,20.6,9.2,20.6,20.6s-9.2,20.6-20.6,20.6
				C632.6,393.8,623.4,384.6,623.4,373.2z"/>
			<path d="M694.9,447.6H381.3c0-28.2,22.8-50.9,50.9-50.9c18.2,0,34.2,9.6,43.2,24c10.4-24,34.4-40.8,62.2-40.8
				c28.2,0,52.4,17.2,62.6,41.7c8.9-14.9,25.2-24.8,43.7-24.8C672.1,396.6,694.9,419.4,694.9,447.6z"/>
			<path class="st0" d="M411.7,373.2c0-11.4,9.2-20.6,20.6-20.6c11.4,0,20.6,9.2,20.6,20.6s-9.2,20.6-20.6,20.6
				C420.9,393.8,411.7,384.6,411.7,373.2z"/>
		</g>
	</g>
	<g>
		<path d="M524.1,884.1c-4.6,5.6-11.3,8.6-19.1,8.6c-11.1,0-18.4-3.8-29.8-15.7c-17.9-3-30.4-16.9-30.4-34.9
			c0-20.5,16.1-35.5,37.9-35.5s37.9,15,37.9,35.5c0,15.5-9.3,27.9-23.2,32.9c2.7,2.9,5.1,3.9,8,3.9c3.7,0,7.3-1.7,10.3-4.8
			L524.1,884.1z M482.7,861.6c10.3,0,18.4-7.7,18.4-19.5c0-11.8-8.1-19.5-18.4-19.5c-10.3,0-18.4,7.7-18.4,19.5
			C464.3,853.9,472.4,861.6,482.7,861.6z"/>
		<path d="M527.3,842.1c0-20.5,16.1-35.5,37.9-35.5c21.8,0,37.9,15,37.9,35.5c0,20.5-16.1,35.5-37.9,35.5
			C543.4,877.6,527.3,862.6,527.3,842.1z M583.6,842.1c0-11.8-8.1-19.5-18.4-19.5c-10.3,0-18.4,7.7-18.4,19.5
			c0,11.8,8.1,19.5,18.4,19.5C575.5,861.6,583.6,853.9,583.6,842.1z"/>
		<path d="M242.9,966.7c0-15.9,12.6-27.2,30.3-27.2c12,0,21.2,5.4,24.8,14.5l-14.3,7.3c-2.5-5-6.2-7.1-10.5-7.1
			c-6.4,0-11.5,4.5-11.5,12.5c0,8.2,5.1,12.7,11.5,12.7c4.3,0,8-2.1,10.5-7.1l14.3,7.3c-3.6,9.2-12.8,14.5-24.8,14.5
			C255.5,994.1,242.9,982.8,242.9,966.7z"/>
		<path d="M301.1,966.7c0-15.9,12.6-27.2,29.8-27.2c17.4,0,29.8,11.3,29.8,27.2c0,16-12.4,27.4-29.8,27.4
			C313.7,994.1,301.1,982.7,301.1,966.7z M342.1,966.7c0-8-4.8-12.5-11.1-12.5c-6.2,0-11.1,4.5-11.1,12.5c0,8.1,4.9,12.7,11.1,12.7
			C337.3,979.4,342.1,974.8,342.1,966.7z"/>
		<path d="M459.5,963v30.2H441V966c0-7.6-3.1-10.8-8-10.8c-5.4,0-9.3,3.6-9.3,11.8v26.2h-18.5V966c0-7.6-3-10.8-8-10.8
			c-5.5,0-9.4,3.6-9.4,11.8v26.2h-18.5v-52.8H387v5.6c4-4.3,9.6-6.4,15.8-6.4c7.2,0,13.4,2.6,17.1,8.3c4.2-5.3,10.7-8.3,18.3-8.3
			C450.5,939.5,459.5,946.6,459.5,963z"/>
		<path d="M561.4,963v30.2h-18.5V966c0-7.6-3.1-10.8-8-10.8c-5.4,0-9.3,3.6-9.3,11.8v26.2h-18.5V966c0-7.6-3-10.8-8-10.8
			c-5.5,0-9.4,3.6-9.4,11.8v26.2h-18.5v-52.8h17.6v5.6c4-4.3,9.6-6.4,15.8-6.4c7.2,0,13.4,2.6,17.1,8.3c4.2-5.3,10.7-8.3,18.3-8.3
			C552.3,939.5,561.4,946.6,561.4,963z"/>
		<path d="M628.6,940.4v52.8H611v-5.7c-4,4.4-9.7,6.5-15.7,6.5c-13,0-22.4-7.4-22.4-24.2v-29.5h18.5v26.5c0,8.2,3.2,11.4,8.8,11.4
			c5.5,0,9.9-3.6,9.9-12.5v-25.4H628.6z"/>
		<path d="M696.8,963v30.2h-18.5V966c0-7.6-3.3-10.8-8.7-10.8c-5.9,0-10.5,3.7-10.5,12.5v25.5h-18.5v-52.8h17.6v5.8
			c4.2-4.4,10.1-6.6,16.8-6.6C687.3,939.5,696.8,946.6,696.8,963z"/>
		<path d="M706.3,924.7c0-5.6,4.5-9.8,11.3-9.8s11.3,4,11.3,9.6c0,5.8-4.5,10.1-11.3,10.1S706.3,930.2,706.3,924.7z M708.4,940.4
			h18.5v52.8h-18.5V940.4z"/>
		<path d="M775.3,991.1c-3.2,2-8,3-12.9,3c-13.5,0-21.4-6.6-21.4-20.2v-17.7h-7.7v-13.8h7.7v-13.7h18.5v13.7h12.1v13.8h-12.1v17.5
			c0,3.9,2.2,6,5.6,6c2,0,4.1-0.6,5.7-1.7L775.3,991.1z"/>
		<path d="M837.2,940.4l-22.8,55c-5.6,13.6-13.4,17.6-23.8,17.6c-5.6,0-11.8-1.9-15.3-4.8l6.4-13c2.1,1.9,5.3,3.1,8.2,3.1
			c3.6,0,5.7-1.4,7.2-4.5l-22.6-53.5h19l13,32.3l13.1-32.3H837.2z"/>
	</g>
</g>
</svg>
