<?xml version="1.0" encoding="utf-8"?>
<!-- Generator: Adobe Illustrator 25.0.0, SVG Export Plug-In . SVG Version: 6.00 Build 0)  -->
<svg version="1.1" id="Layer_1" xmlns="http://www.w3.org/2000/svg" xmlns:xlink="http://www.w3.org/1999/xlink" x="0px" y="0px"
	 viewBox="0 0 1080 1080" style="enable-background:new 0 0 1080 1080;" xml:space="preserve">
<style type="text/css">
	.st0{fill:#F4C603;}
	.st1{fill:#141414;}
</style>
<g>
	<g>
		<g>
			<g>
				<path class="st0" d="M803.8,332.4H753c-9.1,0-16.6,7.4-16.6,16.6s7.4,16.6,16.6,16.6h50.8c9.1,0,16.6-7.4,16.6-16.6
					S812.9,332.4,803.8,332.4z"/>
			</g>
		</g>
		<g>
			<g>
				<path class="st0" d="M781.2,436.6l-33.1-33.1c-6.5-6.5-16.9-6.5-23.4,0c-6.5,6.5-6.5,16.9,0,23.4l33.1,33.1
					c6.5,6.5,16.9,6.5,23.4,0C787.7,453.5,787.7,443,781.2,436.6z"/>
			</g>
		</g>
		<g>
			<g>
				<path class="st0" d="M781.2,237.9c-6.5-6.5-16.9-6.5-23.4,0L724.7,271c-6.5,6.5-6.5,16.9,0,23.4c6.5,6.5,16.9,6.5,23.4,0
					l33.1-33.1C787.7,254.9,787.7,244.4,781.2,237.9z"/>
			</g>
		</g>
		<g>
			<g>
				<path class="st0" d="M372.3,233.1c-21.6,0-39.8,13.9-46.6,33.1h-3c-36.5,0-67.3,29.7-67.3,66.2s30.8,66.2,67.3,66.2h3
					c6.9,19.2,25.1,33.1,46.6,33.1H455V233.1H372.3z"/>
			</g>
		</g>
		<g>
			<g>
				<path d="M653.7,133.8c-18.3,0-33.1,14.8-33.1,33.1v331.1c0,18.3,14.8,33.1,33.1,33.1s33.1-14.8,33.1-33.1V166.9
					C686.8,148.6,672,133.8,653.7,133.8z"/>
			</g>
		</g>
		<g>
			<g>
				<path d="M372.3,464.8c-5.7,0-11.2-0.6-16.6-1.7v84.4c0,27.4,22.3,49.7,49.7,49.7c27.4,0,49.7-22.3,49.7-49.7v-82.8H372.3z"/>
			</g>
		</g>
		<g>
			<g>
				<path d="M572.9,191.1c-23.1,23.1-52.8,36.7-84.8,40.4v201.9c32,3.7,61.7,17.3,84.8,40.4l14.5,14.5V176.6L572.9,191.1z"/>
			</g>
		</g>
	</g>
	<g>
		<path d="M279.1,834l-0.2-37.4L260.7,827h-8.9l-18-29.4V834h-18.4v-70.5h16.4l24.8,40.7l24.2-40.7h16.4l0.2,70.5H279.1z"/>
		<path d="M361.8,803.7V834H344v-7.1c-2.7,5.2-8.2,8-16.1,8c-13.1,0-20.4-7.4-20.4-16.8c0-10.1,7.4-16.3,24.3-16.3h10.9
			c-0.3-5.5-4-8.7-11.6-8.7c-5.2,0-11.1,1.8-14.8,4.7l-6.4-13c6.2-4.1,15.5-6.4,24.1-6.4C351.6,778.5,361.8,786.3,361.8,803.7z
			 M342.7,816.5v-4.7h-8.3c-6.1,0-8.4,2.2-8.4,5.5c0,3.2,2.6,5.5,7.2,5.5C337.4,822.8,341.1,820.8,342.7,816.5z"/>
		<path d="M410.5,778.5v17.2c-1.7-0.2-2.9-0.3-4.3-0.3c-7.8,0-13.1,3.9-13.1,13.5V834h-19.1v-54.6h18.2v6.6
			C396.1,781,402.4,778.5,410.5,778.5z"/>
		<path d="M443.1,814.8l-5.6,5.7V834h-19.1v-74.8h19.1v39.2l19.5-19h22.7L457,802.7l24.6,31.2h-23.2L443.1,814.8z"/>
		<path d="M540.6,811.5h-39.7c1.6,5.5,6.3,8.8,13.4,8.8c5.3,0,8.9-1.5,12.6-4.7l10.1,10.5c-5.2,5.8-12.9,8.9-23.3,8.9
			c-19.4,0-32-12-32-28.3c0-16.4,12.8-28.1,30-28.1c16.1,0,29.2,10.3,29.2,28.3C540.9,808.2,540.7,810,540.6,811.5z M500.6,801.4
			h22.4c-1-5.7-5.2-9.4-11.2-9.4S501.7,795.7,500.6,801.4z"/>
		<path d="M587.4,831.8c-3.3,2.1-8.3,3.1-13.3,3.1c-14,0-22.2-6.9-22.2-20.9v-18.3h-8v-14.3h8v-14.2h19.1v14.2h12.5v14.3h-12.5v18.1
			c0,4,2.3,6.2,5.7,6.2c2.1,0,4.2-0.6,5.8-1.7L587.4,831.8z"/>
		<path d="M592.6,763.1c0-5.7,4.6-10.2,11.7-10.2c7.1,0,11.7,4.1,11.7,9.9c0,6-4.6,10.5-11.7,10.5
			C597.3,773.3,592.6,768.9,592.6,763.1z M594.8,779.4h19.1V834h-19.1V779.4z"/>
		<path d="M684.4,802.7V834h-19.1v-28.1c0-7.9-3.4-11.2-9-11.2c-6.1,0-10.9,3.8-10.9,12.9V834h-19.1v-54.6h18.2v5.9
			c4.3-4.5,10.5-6.9,17.3-6.9C674.7,778.5,684.4,785.8,684.4,802.7z"/>
		<path d="M756,779.4V824c0,20.7-11.7,30.4-32,30.4c-10.5,0-20.5-2.4-27.1-7.2l7-13.4c4.5,3.6,12,5.8,18.4,5.8
			c10.3,0,14.6-4.6,14.6-13.2v-1.8c-3.7,4.3-9.3,6.4-16.2,6.4c-14.5,0-26.8-10.3-26.8-26.4c0-16,12.3-26.3,26.8-26.3
			c7.6,0,13.4,2.4,17.1,7.6v-6.7H756z M737,804.8c0-6.7-5-11.1-11.9-11.1c-6.9,0-12,4.4-12,11.1c0,6.6,5.1,11.2,12,11.2
			C732,815.9,737,811.4,737,804.8z"/>
		<path d="M854.3,835.2l-8-7.1c-6.6,4.6-14.7,7.3-23.7,7.3c-16.2,0-28.1-8.4-28.1-19.8c0-9,4.5-15.2,14.7-20.8
			c-4.6-4.7-6.8-9.4-6.8-14.2c0-10.8,9.4-18.1,23.7-18.1c13,0,21.8,6.6,21.8,16.9c0,7.3-4.1,12.7-13.1,17.6l10.3,9.2
			c1.4-3,2.4-6.3,3.1-10.1l15.4,4.6c-1.3,5.9-3.5,11.4-6.6,16l7.5,6.6L854.3,835.2z M834.9,817.9l-15.2-13.5
			c-4.5,2.7-6.4,5.5-6.4,9.1c0,4.2,4.1,7.4,10.8,7.4C827.9,820.8,831.7,819.8,834.9,817.9z M820,780.3c0,2.2,0.9,3.9,4.5,7.4
			c5.4-2.9,7.4-5.2,7.4-7.9c0-2.8-1.9-4.7-5.6-4.7C822.2,775,820,777.3,820,780.3z"/>
		<path d="M361.7,880.1h19.1v74.8h-19.1V880.1z"/>
		<path d="M389.8,927.5c0-16.4,13-28.1,30.8-28.1c18,0,30.8,11.7,30.8,28.1c0,16.5-12.8,28.3-30.8,28.3
			C402.8,955.8,389.8,944,389.8,927.5z M432.1,927.5c0-8.3-4.9-12.9-11.5-12.9c-6.4,0-11.5,4.6-11.5,12.9c0,8.4,5,13.1,11.5,13.1
			C427.2,940.6,432.1,935.9,432.1,927.5z"/>
		<path d="M516.4,900.3l-23.6,56.8c-5.7,14.1-13.8,18.2-24.6,18.2c-5.7,0-12.2-1.9-15.8-4.9L459,957c2.2,2,5.4,3.2,8.5,3.2
			c3.7,0,5.8-1.4,7.5-4.6l-23.4-55.3h19.6l13.4,33.4l13.5-33.4H516.4z"/>
		<path d="M570.6,924.6v30.3h-17.8v-7.1c-2.7,5.2-8.2,8-16.1,8c-13.1,0-20.4-7.4-20.4-16.8c0-10.1,7.4-16.3,24.3-16.3h10.9
			c-0.3-5.5-4-8.7-11.6-8.7c-5.2,0-11.1,1.8-14.8,4.7l-6.4-13c6.2-4.1,15.5-6.4,24.1-6.4C560.4,899.4,570.6,907.2,570.6,924.6z
			 M551.4,937.4v-4.7h-8.3c-6.1,0-8.4,2.2-8.4,5.5c0,3.2,2.6,5.5,7.2,5.5C546.2,943.7,549.9,941.7,551.4,937.4z"/>
		<path d="M582.7,880.1h19.1v74.8h-19.1V880.1z"/>
		<path d="M657.3,952.7c-3.3,2.1-8.3,3.1-13.3,3.1c-14,0-22.2-6.9-22.2-20.9v-18.3h-8v-14.3h8v-14.2H641v14.2h12.5v14.3H641v18.1
			c0,4,2.3,6.2,5.7,6.2c2.1,0,4.2-0.6,5.8-1.7L657.3,952.7z"/>
		<path d="M721.2,900.3l-23.6,56.8c-5.7,14.1-13.8,18.2-24.6,18.2c-5.7,0-12.2-1.9-15.8-4.9l6.6-13.4c2.2,2,5.4,3.2,8.5,3.2
			c3.7,0,5.8-1.4,7.5-4.6l-23.4-55.3h19.6l13.4,33.4l13.5-33.4H721.2z"/>
	</g>
</g>
</svg>
