<?xml version="1.0" encoding="utf-8"?>
<!-- Generator: Adobe Illustrator 25.0.0, SVG Export Plug-In . SVG Version: 6.00 Build 0)  -->
<svg version="1.1" id="Layer_1" xmlns="http://www.w3.org/2000/svg" xmlns:xlink="http://www.w3.org/1999/xlink" x="0px" y="0px"
	 viewBox="0 0 1080 1080" style="enable-background:new 0 0 1080 1080;" xml:space="preserve">
<style type="text/css">
	.st0{fill:#F4C603;}
	.st1{fill:#141414;}
</style>
<g>
	<g>
		<g>
			<g>
				<path class="st0" d="M415.7,471.9h49.6V384h-49.6V471.9z M481,471.9h49.6V358.4H481V471.9z M546.3,318.1v153.7h49.6V318.1H546.3
					z M586.7,245.2c2.9-3.7,3.4-7.2-0.9-10.1c-3.7-2.4-8.2-1.3-11.9,2.8c-0.5,0.6-1,1.1-1.4,1.7c-12.2,14.9-24.4,29.8-36.6,44.7
					c-1.1,1.4-2.4,2.7-3.8,4.2c-9.4-5.6-18.2-10.8-27-16c-6.7-3.9-10.2-3.3-15,2.6c-5.6,6.8-11.2,13.6-16.7,20.4
					c-5.2,6.5-10.2,13.1-15.9,20.5c-7.5-4.7-13.8-8.7-20.1-12.6c-4.4-2.7-8.5-2.3-12,1.8c-7.5,8.6-15,17.3-22.4,26
					c-0.8,1-1.1,3.1-0.4,4c2.6,3.1,5.7,5.8,9.7,9.7c7.6-9.6,14.5-18.3,21.8-27.5c6.4,3.9,12.6,7.7,18.9,11.4
					c5.5,3.2,9.1,2.5,13.2-2.4c2.5-3,5-6.1,7.5-9.1c8.4-10.5,16.7-21,25.8-32.3c10,6.1,18.7,11.5,27.5,16.7c6.8,4.1,9.9,3.5,15-2.5
					c9.9-11.8,19.7-23.6,29.5-35.4C576.6,257.7,581.7,251.5,586.7,245.2z"/>
			</g>
		</g>
		<g>
			<g>
				<path d="M794.4,538.3c-24.6-28.2-49.1-56.4-73.7-84.7c-3.9,14.4-12.2,38-31,62c-20.8,26.6-44.5,40.9-58.2,47.9
					c24.6,20.8,49.3,41.5,73.9,62.3c3.9,3.9,15.5,14.4,33.8,17.2c17.4,2.7,30.6-3.2,35.4-5.3c4.1-1.8,20.2-9.7,29.3-26.1
					C815.7,590.4,811.8,561.5,794.4,538.3z M720.7,355.4c0-121.4-98.5-219.9-219.9-219.9c-121.4,0-219.9,98.5-219.9,219.9
					c0,121.4,98.5,219.9,219.9,219.9C622.2,575.3,720.7,476.8,720.7,355.4z M500.8,527c-94.8,0-171.6-76.9-171.6-171.6
					S406,183.7,500.8,183.7s171.6,76.9,171.6,171.6S595.6,527,500.8,527z"/>
			</g>
		</g>
	</g>
	<g>
		<path d="M277.5,839.2h-10.9v18.7h-20v-70.5h32.2c19.2,0,31.3,10,31.3,26.1c0,10.4-5,18-13.8,22.3l15.2,22.2h-21.4L277.5,839.2z
			 M277.7,803.1h-11.1v20.7h11.1c8.3,0,12.4-3.8,12.4-10.3C290.1,806.9,286,803.1,277.7,803.1z"/>
		<path d="M375.9,835.4h-39.7c1.6,5.5,6.3,8.8,13.4,8.8c5.3,0,8.9-1.5,12.6-4.7l10.1,10.5c-5.2,5.8-12.9,8.9-23.3,8.9
			c-19.4,0-32-12-32-28.3c0-16.4,12.8-28.1,30-28.1c16.1,0,29.2,10.3,29.2,28.3C376.2,832.1,376,833.9,375.9,835.4z M335.9,825.4
			h22.4c-1-5.7-5.2-9.4-11.2-9.4S337,819.6,335.9,825.4z"/>
		<path d="M380.7,853.2l5.7-13.1c5,3.1,12.4,5,19,5c6.4,0,8.6-1.4,8.6-3.7c0-7.4-32.2,1-32.2-20.9c0-10.3,9.5-18.1,26.6-18.1
			c7.7,0,16.1,1.6,21.6,4.6l-5.7,13c-5.4-3-10.9-4-15.7-4c-6.4,0-8.8,1.8-8.8,3.8c0,7.6,32.1-0.6,32.1,21.1c0,10.1-9.3,17.9-27,17.9
			C395.6,858.8,386,856.5,380.7,853.2z"/>
		<path d="M477.8,855.7c-3.3,2.1-8.3,3.1-13.3,3.1c-14,0-22.2-6.9-22.2-20.9v-18.3h-8v-14.3h8v-14.2h19.1v14.2H474v14.3h-12.5v18.1
			c0,4,2.3,6.2,5.7,6.2c2.1,0,4.2-0.6,5.8-1.7L477.8,855.7z"/>
		<path d="M536.4,827.6v30.3h-17.8v-7.1c-2.7,5.2-8.2,8-16.1,8c-13.1,0-20.4-7.4-20.4-16.8c0-10.1,7.4-16.3,24.3-16.3h10.9
			c-0.3-5.5-4-8.7-11.6-8.7c-5.2,0-11.1,1.8-14.8,4.7l-6.4-13c6.2-4.1,15.5-6.4,24.1-6.4C526.2,802.4,536.4,810.3,536.4,827.6z
			 M517.2,840.4v-4.7H509c-6.1,0-8.4,2.2-8.4,5.5c0,3.2,2.6,5.5,7.2,5.5C512,846.7,515.7,844.7,517.2,840.4z"/>
		<path d="M605.9,803.3v54.6h-18.2v-5.8c-4.1,4.5-10,6.8-16.2,6.8c-13.4,0-23.2-7.7-23.2-25v-30.5h19.1v27.4
			c0,8.5,3.3,11.8,9.1,11.8c5.6,0,10.3-3.7,10.3-12.9v-26.3H605.9z"/>
		<path d="M654.8,802.4v17.2c-1.7-0.2-2.9-0.3-4.3-0.3c-7.8,0-13.1,3.9-13.1,13.5v25.1h-19.1v-54.6h18.2v6.6
			C640.4,804.9,646.7,802.4,654.8,802.4z"/>
		<path d="M713.4,827.6v30.3h-17.8v-7.1c-2.7,5.2-8.2,8-16.1,8c-13.1,0-20.4-7.4-20.4-16.8c0-10.1,7.4-16.3,24.3-16.3h10.9
			c-0.3-5.5-4-8.7-11.6-8.7c-5.2,0-11.1,1.8-14.8,4.7l-6.4-13c6.2-4.1,15.5-6.4,24.1-6.4C703.2,802.4,713.4,810.3,713.4,827.6z
			 M694.3,840.4v-4.7H686c-6.1,0-8.4,2.2-8.4,5.5c0,3.2,2.6,5.5,7.2,5.5C689,846.7,692.8,844.7,694.3,840.4z"/>
		<path d="M783.6,826.7v31.2h-19.1v-28.1c0-7.9-3.4-11.2-9-11.2c-6.1,0-10.9,3.8-10.9,12.9v26.4h-19.1v-54.6h18.2v5.9
			c4.3-4.5,10.5-6.9,17.3-6.9C773.9,802.4,783.6,809.7,783.6,826.7z"/>
		<path d="M833.3,855.7c-3.3,2.1-8.3,3.1-13.3,3.1c-14,0-22.2-6.9-22.2-20.9v-18.3h-8v-14.3h8v-14.2H817v14.2h12.5v14.3H817v18.1
			c0,4,2.3,6.2,5.7,6.2c2.1,0,4.2-0.6,5.8-1.7L833.3,855.7z"/>
		<path d="M393.3,948.5v30.3h-17.8v-7.1c-2.7,5.2-8.2,8-16.1,8c-13.1,0-20.4-7.4-20.4-16.8c0-10.1,7.4-16.3,24.3-16.3h10.9
			c-0.3-5.5-4-8.7-11.6-8.7c-5.2,0-11.1,1.8-14.8,4.7l-6.4-13c6.2-4.1,15.5-6.4,24.1-6.4C383.1,923.3,393.3,931.2,393.3,948.5z
			 M374.1,961.3v-4.7h-8.3c-6.1,0-8.4,2.2-8.4,5.5c0,3.2,2.6,5.5,7.2,5.5C368.9,967.6,372.6,965.6,374.1,961.3z"/>
		<path d="M463.5,947.6v31.2h-19.1v-28.1c0-7.9-3.4-11.2-9-11.2c-6.1,0-10.9,3.8-10.9,12.9v26.4h-19.1v-54.6h18.2v5.9
			c4.3-4.5,10.5-6.9,17.3-6.9C453.8,923.3,463.5,930.7,463.5,947.6z"/>
		<path d="M526.7,948.5v30.3h-17.8v-7.1c-2.7,5.2-8.2,8-16.1,8c-13.1,0-20.4-7.4-20.4-16.8c0-10.1,7.4-16.3,24.3-16.3h10.9
			c-0.3-5.5-4-8.7-11.6-8.7c-5.2,0-11.1,1.8-14.8,4.7l-6.4-13c6.2-4.1,15.5-6.4,24.1-6.4C516.5,923.3,526.7,931.2,526.7,948.5z
			 M507.6,961.3v-4.7h-8.3c-6.1,0-8.4,2.2-8.4,5.5c0,3.2,2.6,5.5,7.2,5.5C502.3,967.6,506,965.6,507.6,961.3z"/>
		<path d="M538.8,904.1h19.1v74.8h-19.1V904.1z"/>
		<path d="M627.9,924.2L604.3,981c-5.7,14.1-13.8,18.2-24.6,18.2c-5.7,0-12.2-1.9-15.8-4.9l6.6-13.4c2.2,2,5.4,3.2,8.5,3.2
			c3.7,0,5.8-1.4,7.5-4.6l-23.4-55.3h19.6l13.4,33.4l13.5-33.4H627.9z"/>
		<path d="M627.6,974.1l5.7-13.1c5,3.1,12.4,5,19,5c6.4,0,8.6-1.4,8.6-3.7c0-7.4-32.2,1-32.2-20.9c0-10.3,9.5-18.1,26.6-18.1
			c7.7,0,16.1,1.6,21.6,4.6l-5.7,13c-5.4-3-10.9-4-15.7-4c-6.4,0-8.8,1.8-8.8,3.8c0,7.6,32.1-0.6,32.1,21.1c0,10.1-9.3,17.9-27,17.9
			C642.5,979.7,632.9,977.4,627.6,974.1z"/>
		<path d="M684.9,908c0-5.7,4.6-10.2,11.7-10.2c7.1,0,11.7,4.1,11.7,9.9c0,6-4.6,10.5-11.7,10.5C689.5,918.2,684.9,913.7,684.9,908z
			 M687,924.2h19.1v54.6H687V924.2z"/>
		<path d="M714.2,974.1L720,961c5,3.1,12.4,5,19,5c6.4,0,8.6-1.4,8.6-3.7c0-7.4-32.2,1-32.2-20.9c0-10.3,9.5-18.1,26.6-18.1
			c7.7,0,16.1,1.6,21.6,4.6l-5.7,13c-5.4-3-10.9-4-15.7-4c-6.4,0-8.8,1.8-8.8,3.8c0,7.6,32.1-0.6,32.1,21.1c0,10.1-9.3,17.9-27,17.9
			C729.1,979.7,719.6,977.4,714.2,974.1z"/>
	</g>
</g>
</svg>
