<?xml version="1.0" encoding="utf-8"?>
<!-- Generator: Adobe Illustrator 25.0.0, SVG Export Plug-In . SVG Version: 6.00 Build 0)  -->
<svg version="1.1" id="Layer_1" xmlns="http://www.w3.org/2000/svg" xmlns:xlink="http://www.w3.org/1999/xlink" x="0px" y="0px"
	 viewBox="0 0 1080 1080" style="enable-background:new 0 0 1080 1080;" xml:space="preserve">
<style type="text/css">
	.st0{fill:#FFFFFF;}
	.st1{fill:#F4C603;}
</style>
<g>
	<g>
		<path class="st1" d="M874.4,656.4c-48.8,0-96.7-7.6-142-22.6c-22.2-7.6-49.6-0.6-63.1,13.3l-89.6,67.6
			c-103.9-55.5-167.9-119.4-222.6-222.5l65.6-87.2c17.1-17,23.2-41.9,15.8-65.2c-15.1-45.6-22.7-93.5-22.7-142.3
			c0-35.3-28.7-63.9-63.9-63.9H205.6c-35.2,0-63.9,28.7-63.9,63.9c0,404,328.7,732.7,732.7,732.7c35.2,0,63.9-28.7,63.9-63.9V720.3
			C938.3,685,909.7,656.4,874.4,656.4z"/>
	</g>
</g>
</svg>
