<?xml version="1.0" encoding="utf-8"?>
<!-- Generator: Adobe Illustrator 25.0.0, SVG Export Plug-In . SVG Version: 6.00 Build 0)  -->
<svg version="1.1" id="Layer_1" xmlns="http://www.w3.org/2000/svg" xmlns:xlink="http://www.w3.org/1999/xlink" x="0px" y="0px"
	 viewBox="0 0 1080 1080" style="enable-background:new 0 0 1080 1080;" xml:space="preserve">
<style type="text/css">
	.st0{fill:#FFFFFF;}
	.st1{fill:#F4C603;}
</style>
<g>
	<g>
		<g>
			<path class="st1" d="M540,107.6c-181.6,0-329.4,147.8-329.4,329.4c0,71.9,22.7,140.2,65.7,197.5l243.4,327.8
				c0.6,0.8,1.5,1.1,2.2,1.8c12.2,13,29.7,9.7,38.4-1.8c70.1-93.5,198.5-268.1,247.9-334c0,0,0-0.1,0-0.1l0.3-0.4
				c39.8-55.9,60.8-121.9,60.8-190.7C869.4,255.4,721.6,107.6,540,107.6z M540,614.7c-97.8,0-177.7-79.9-177.7-177.7
				S442.2,259.3,540,259.3S717.7,339.2,717.7,437S637.8,614.7,540,614.7z"/>
		</g>
	</g>
</g>
</svg>
