<?xml version="1.0" encoding="utf-8"?>
<!-- Generator: Adobe Illustrator 25.0.0, SVG Export Plug-In . SVG Version: 6.00 Build 0)  -->
<svg version="1.1" id="Layer_1" xmlns="http://www.w3.org/2000/svg" xmlns:xlink="http://www.w3.org/1999/xlink" x="0px" y="0px"
	 viewBox="0 0 1080 1080" style="enable-background:new 0 0 1080 1080;" xml:space="preserve">
<style type="text/css">
	.st0{fill:#FFFFFF;}
	.st1{fill:#F4C603;}
</style>
<path class="st0" d="M721.7,441.4c0.2,4,0.3,7.8,0.3,11.8c0,120.7-91.9,259.8-259.9,259.8h0h0c-51.6,0-99.6-15.1-140-41
	c7.1,0.9,14.4,1.3,21.8,1.3c42.8,0,82.2-14.7,113.4-39.1c-40-0.9-73.7-27.3-85.3-63.5c5.6,1.1,11.3,1.7,17.2,1.7
	c8.3,0,16.4-1.1,24.1-3.3C371.4,561,340,524,340,479.8c0-0.4,0-0.9,0-1.1c12.3,6.8,26.4,10.8,41.4,11.4
	c-24.5-16.4-40.6-44.4-40.6-76.1c0-16.7,4.5-32.4,12.4-46c45,55.2,112.4,91.6,188.3,95.5c-1.6-6.7-2.4-13.7-2.4-20.8
	c0-50.4,40.9-91.3,91.3-91.3c26.3,0,50,11.1,66.7,28.8c20.8-4.1,40.3-11.7,58-22.1c-6.8,21.3-21.3,39.2-40.2,50.5
	c18.5-2.3,36.1-7.1,52.5-14.4C755,412.4,739.5,428.5,721.7,441.4z M540,131.2c-219.7,0-397.9,178.2-397.9,398S320.3,927,540,927
	c219.7,0,397.9-178.1,397.9-397.8S759.7,131.2,540,131.2z"/>
</svg>
