<?xml version="1.0" encoding="utf-8"?>
<!-- Generator: Adobe Illustrator 25.0.0, SVG Export Plug-In . SVG Version: 6.00 Build 0)  -->
<svg version="1.1" id="Layer_1" xmlns="http://www.w3.org/2000/svg" xmlns:xlink="http://www.w3.org/1999/xlink" x="0px" y="0px"
	 viewBox="0 0 1080 1080" style="enable-background:new 0 0 1080 1080;" xml:space="preserve">
<style type="text/css">
	.st0{fill:#FFFFFF;}
	.st1{fill:#F4C603;}
</style>
<g>
	<path class="st0" d="M861.6,693.7c0,87.6-71.1,158.8-158.9,158.8H377.3c-87.7,0-158.8-71.2-158.8-158.8V368.2
		c0-87.8,71.1-158.8,158.8-158.8h325.4c87.7,0,158.9,71.1,158.9,158.8V693.7z M702.7,128.3H377.3c-132.2,0-239.8,107.6-239.8,239.9
		v325.5c0,132.1,107.6,239.7,239.8,239.7h325.4c132.3,0,239.9-107.6,239.9-239.7V368.2C942.6,235.9,834.9,128.3,702.7,128.3z"/>
	<path class="st0" d="M540,658.1c-70.3,0-127.2-56.9-127.2-127.3c0-70.2,57-127.1,127.2-127.1c70.3,0,127.2,56.9,127.2,127.1
		C667.2,601.2,610.3,658.1,540,658.1z M540,322.7c-114.8,0-208.2,93.5-208.2,208.2c0,114.9,93.4,208.3,208.2,208.3
		c114.8,0,208.2-93.5,208.2-208.3C748.2,416.1,654.8,322.7,540,322.7z"/>
	<path class="st0" d="M748.6,274.3c6.6,0,13,1.3,19.1,3.8c6.1,2.5,11.5,6.1,16.2,10.8c4.7,4.7,8.3,10.1,10.8,16.2
		c2.5,6.1,3.8,12.5,3.8,19.1c0,6.6-1.3,13-3.8,19.1c-2.5,6.1-6.1,11.5-10.8,16.2c-4.7,4.7-10.1,8.3-16.2,10.8
		c-6.1,2.5-12.5,3.8-19.1,3.8c-6.6,0-13-1.3-19.1-3.8c-6.1-2.5-11.5-6.1-16.2-10.8c-4.7-4.7-8.3-10.1-10.8-16.2
		c-2.5-6.1-3.8-12.5-3.8-19.1c0-6.6,1.3-13,3.8-19.1c2.5-6.1,6.1-11.5,10.8-16.2c4.7-4.7,10.1-8.3,16.2-10.8
		C735.7,275.6,742,274.3,748.6,274.3z"/>
</g>
</svg>
