<?xml version="1.0" encoding="utf-8"?>
<!-- Generator: Adobe Illustrator 25.0.0, SVG Export Plug-In . SVG Version: 6.00 Build 0)  -->
<svg version="1.1" id="Layer_1" xmlns="http://www.w3.org/2000/svg" xmlns:xlink="http://www.w3.org/1999/xlink" x="0px" y="0px"
	 viewBox="0 0 1080 1080" style="enable-background:new 0 0 1080 1080;" xml:space="preserve">
<style type="text/css">
	.st0{fill:#FFFFFF;}
	.st1{fill:#F4C603;}
</style>
<path class="st0" d="M942.6,230.8v603.9c0,55.5-45.1,100.6-100.6,100.6H691V658.6h75.5l50.3-125.9H691V432.1
	c0-27.8,22.6-25.3,50.3-25.3h50.3V281.1H691c-41.7,0-79.4,16.8-106.7,44.2c-27.3,27.3-44.2,64.9-44.2,106.7v100.6H439.4v125.9H540
	v276.7H238.1c-55.5,0-100.6-45.1-100.6-100.6V230.8c0-55.5,45.1-100.6,100.6-100.6h603.8C897.4,130.2,942.6,175.3,942.6,230.8z"/>
</svg>
