<?xml version="1.0" encoding="utf-8"?>
<!-- Generator: Adobe Illustrator 25.0.0, SVG Export Plug-In . SVG Version: 6.00 Build 0)  -->
<svg version="1.1" id="Layer_1" xmlns="http://www.w3.org/2000/svg" xmlns:xlink="http://www.w3.org/1999/xlink" x="0px" y="0px"
	 viewBox="0 0 1080 1080" style="enable-background:new 0 0 1080 1080;" xml:space="preserve">
<style type="text/css">
	.st0{fill:#FFFFFF;}
	.st1{fill:#F4C603;}
</style>
<g>
	<g>
		<g>
			<path class="st0" d="M1013.8,261.8L680.3,539.5l334,222.3V268.1C1014.3,266,1014.1,263.9,1013.8,261.8z"/>
		</g>
	</g>
	<g>
		<g>
			<path class="st0" d="M650.2,564.6l-42,35c-19.7,16.4-44,24.7-68.2,24.7c-24.2,0-48.4-8.2-68.2-24.7l-42-35L65.7,806.9v5
				c0,20.7,16.8,37.5,37.5,37.5h873.6c20.7,0,37.5-16.8,37.5-37.5v-5L650.2,564.6z"/>
		</g>
	</g>
	<g>
		<g>
			<g>
				<path class="st1" d="M977,230.6c0,0-0.1,0-0.1,0H103.2c0,0-0.1,0-0.1,0c-5.3,0-7.6,6.8-3.5,10.2l343.3,285.9
					c0,0,0.1,0.1,0.1,0.1l52.9,44c25.6,21.3,62.7,21.3,88.3,0l396.3-330C984.5,237.4,982.2,230.6,977,230.6z"/>
			</g>
		</g>
	</g>
	<g>
		<g>
			<path class="st0" d="M66.2,261.8c-0.3,2-0.6,4.1-0.6,6.3v493.7l334-222.3L66.2,261.8z"/>
		</g>
	</g>
</g>
</svg>
