<?xml version="1.0" encoding="utf-8"?>
<!-- Generator: Adobe Illustrator 25.0.0, SVG Export Plug-In . SVG Version: 6.00 Build 0)  -->
<svg version="1.1" id="Layer_1" xmlns="http://www.w3.org/2000/svg" xmlns:xlink="http://www.w3.org/1999/xlink" x="0px" y="0px"
	 viewBox="0 0 1080 1080" style="enable-background:new 0 0 1080 1080;" xml:space="preserve">
<style type="text/css">
	.st0{fill:#F4C603;}
	.st1{fill:#141414;}
</style>
<g>
	<g>
		<g>
			<path d="M374.9,888.8v14.3c-1.4-0.2-2.4-0.3-3.6-0.3c-6.4,0-10.9,3.3-10.9,11.2v20.8h-15.9v-45.4h15.2v5.4
				C362.9,890.9,368.2,888.8,374.9,888.8z"/>
			<path d="M427.1,916.2h-33c1.3,4.6,5.3,7.3,11.1,7.3c4.4,0,7.4-1.3,10.5-3.9l8.4,8.7c-4.4,4.9-10.7,7.4-19.3,7.4
				c-16.2,0-26.6-10-26.6-23.5c0-13.6,10.6-23.4,24.9-23.4c13.4,0,24.3,8.5,24.3,23.5C427.3,913.5,427.2,915,427.1,916.2z
				 M393.9,907.8h18.6c-0.8-4.8-4.4-7.8-9.3-7.8C398.2,900.1,394.8,903.1,393.9,907.8z"/>
			<path d="M481.7,889.5l-18.8,45.4h-16.4l-18.7-45.4h16.3l10.9,27.7l11.5-27.7H481.7z"/>
			<path d="M484,876c0-4.8,3.9-8.5,9.7-8.5s9.7,3.4,9.7,8.2c0,5-3.9,8.7-9.7,8.7S484,880.8,484,876z M485.8,889.5h15.9v45.4h-15.9
				V889.5z"/>
			<path d="M558.1,916.2h-33c1.3,4.6,5.3,7.3,11.1,7.3c4.4,0,7.4-1.3,10.5-3.9l8.4,8.7c-4.4,4.9-10.7,7.4-19.3,7.4
				c-16.2,0-26.6-10-26.6-23.5c0-13.6,10.6-23.4,24.9-23.4c13.4,0,24.3,8.5,24.3,23.5C558.4,913.5,558.2,915,558.1,916.2z
				 M524.9,907.8h18.6c-0.8-4.8-4.4-7.8-9.3-7.8C529.2,900.1,525.8,903.1,524.9,907.8z"/>
			<path d="M640.1,889.5l-16.2,45.4h-15.4l-8.5-24.7l-8.9,24.7h-15.4l-16.2-45.4h15.1l9.3,27.5l9.6-27.5h13.6l9.4,27.7l9.6-27.7
				H640.1z"/>
		</g>
	</g>
	<path d="M618,212.1H361.4c-36.7,0-66.5,29.8-66.5,66.5V464c0,36.7,29.8,66.5,66.5,66.5h104.8l32.7,23.3l64.1,45.7l6.6-68.9H618
		c36.7,0,66.5-29.8,66.5-66.5V278.5C684.5,241.8,654.7,212.1,618,212.1z M443.3,428.5c0,3.4-2.7,6.1-6.1,6.1h-93
		c-3.4,0-6.1-2.7-6.1-6.1v-8.3c0-3.4,2.7-6.1,6.1-6.1h93c3.4,0,6.1,2.7,6.1,6.1V428.5z M443.3,383.3c0,3.4-2.7,6.1-6.1,6.1h-93
		c-3.4,0-6.1-2.7-6.1-6.1v-8.3c0-3.4,2.7-6.1,6.1-6.1h93c3.4,0,6.1,2.7,6.1,6.1V383.3z M443.3,338c0,3.4-2.7,6.1-6.1,6.1h-93
		c-3.4,0-6.1-2.7-6.1-6.1v-8.3c0-3.4,2.7-6.1,6.1-6.1h93c3.4,0,6.1,2.7,6.1,6.1V338z M539.7,412l-21.4-11.2L496.9,412l4.1-23.8
		l-17.3-16.9l23.9-3.5l10.7-21.7l10.7,21.7l23.9,3.5l-17.3,16.9L539.7,412z M620.2,412l-21.4-11.2L577.4,412l4.1-23.8l-17.3-16.9
		l23.9-3.5l10.7-21.7l10.7,21.7l23.9,3.5l-17.3,16.9L620.2,412z"/>
</g>
</svg>
