<?xml version="1.0" encoding="utf-8"?>
<!-- Generator: Adobe Illustrator 25.0.0, SVG Export Plug-In . SVG Version: 6.00 Build 0)  -->
<svg version="1.1" id="Layer_1" xmlns="http://www.w3.org/2000/svg" xmlns:xlink="http://www.w3.org/1999/xlink" x="0px" y="0px"
	 viewBox="0 0 1080 1080" style="enable-background:new 0 0 1080 1080;" xml:space="preserve">
<style type="text/css">
	.st0{fill:#F4C603;}
	.st1{fill:#141414;}
</style>
<g>
	<path class="st1" d="M844.6,386.1l-20.3,64.4c-2,6.5-6.7,11.4-12.7,13.4c-6.1,2-12.7,0.8-18.2-3.2l-29.9-21.8v162.7h-25.1V424.7
		c0-7.5,3.5-13.8,9.3-16.8c5.8-3,13-2.1,19.1,2.3l35.8,26.1l18.2-57.7c0.1-0.5-0.4-1.9-0.8-2.3l-90.2-65.8
		c-7.9-5.7-13.6-17-13.6-26.8V181.1h-57.7v42.3c0,7.5-3.5,13.8-9.3,16.8c-5.9,3-13,2.1-19.1-2.3L546,176.6c-0.4-0.2-1.7-0.2-2.2,0.1
		L270.1,376.3c-0.4,0.3-0.8,1.7-0.7,2.3l18.1,57.6l35.8-26.1c6.1-4.4,13.2-5.3,19.1-2.3c5.8,3,9.3,9.2,9.3,16.8v176.9h-25.1V438.9
		l-29.9,21.8c-5.5,4-12.2,5.2-18.2,3.2c-6.1-2-10.7-6.9-12.8-13.4l-20.3-64.4c-3.3-10.6,0.9-23.5,9.9-30.1l273.9-199.6
		c9-6.6,22.7-6.6,31.7,0l72.3,52.8v-30.2c0-12.7,10.3-23,23-23h61.9c12.7,0,23,10.3,23,23v104.8c0,1.7,1.9,5.5,3.3,6.5l90.3,65.8
		C843.7,362.6,847.9,375.5,844.6,386.1z"/>
	<g>
		<path d="M416.7,819.6c0-16.4,12.9-28.4,30.4-28.4s30.4,12,30.4,28.4c0,16.4-12.9,28.4-30.4,28.4S416.7,836,416.7,819.6z
			 M461.8,819.6c0-9.4-6.5-15.6-14.7-15.6c-8.3,0-14.7,6.2-14.7,15.6c0,9.4,6.5,15.6,14.7,15.6C455.3,835.2,461.8,829.1,461.8,819.6
			z"/>
		<path d="M513.1,803.9v13.3c-1.3-0.2-2.3-0.2-3.4-0.2c-6,0-10.1,3-10.1,10.5v19.4h-14.8v-42.3h14.1v5.1
			C502,805.9,506.9,803.9,513.1,803.9z"/>
		<path d="M563.8,789v57.9h-14.1v-4.2c-2.8,3.4-6.9,4.9-12.4,4.9c-11.5,0-20.8-8.4-20.8-21.9c0-13.4,9.3-21.8,20.8-21.8
			c4.9,0,8.9,1.4,11.7,4.4V789H563.8z M549.2,825.7c0-6.4-3.8-10-8.8-10c-5.1,0-8.9,3.6-8.9,10c0,6.5,3.8,10.1,8.9,10.1
			C545.4,835.8,549.2,832.2,549.2,825.7z"/>
		<path d="M616.3,829.5h-30.7c1.3,4.3,4.9,6.8,10.4,6.8c4.1,0,6.9-1.2,9.8-3.7l7.8,8.1c-4.1,4.5-10,6.9-18,6.9
			c-15.1,0-24.8-9.3-24.8-21.9c0-12.7,9.9-21.8,23.3-21.8c12.5,0,22.6,8,22.6,21.9C616.5,827,616.4,828.4,616.3,829.5z M585.3,821.7
			h17.3c-0.8-4.4-4.1-7.3-8.7-7.3C589.4,814.5,586.2,817.3,585.3,821.7z"/>
		<path d="M651.7,803.9v13.3c-1.3-0.2-2.3-0.2-3.4-0.2c-6,0-10.1,3-10.1,10.5v19.4h-14.8v-42.3h14.1v5.1
			C640.6,805.9,645.5,803.9,651.7,803.9z"/>
		<path d="M332.2,899.8h10.1v11.1h-9.7v29.6h-14.8v-29.6h-6.2v-11.1h6.2v-1.1c0-10.1,6.3-16.8,17.6-16.8c3.6,0,7.4,0.7,9.8,2.2
			l-3.7,10.5c-1.3-0.7-2.9-1.2-4.4-1.2c-3.1,0-4.9,1.8-4.9,5.5V899.8z"/>
		<path d="M382.3,897.6v13.3c-1.3-0.2-2.3-0.2-3.4-0.2c-6,0-10.1,3-10.1,10.5v19.4H354v-42.3h14.1v5.1
			C371.2,899.5,376.1,897.6,382.3,897.6z"/>
		<path d="M385.4,919.3c0-12.7,10.1-21.8,23.9-21.8c14,0,23.9,9.1,23.9,21.8c0,12.8-9.9,21.9-23.9,21.9
			C395.4,941.3,385.4,932.1,385.4,919.3z M418.1,919.3c0-6.4-3.8-10-8.9-10c-5,0-8.9,3.6-8.9,10c0,6.5,3.9,10.1,8.9,10.1
			C414.3,929.5,418.1,925.8,418.1,919.3z"/>
		<path d="M512.2,916.4v24.2h-14.8v-21.8c0-6.1-2.5-8.7-6.4-8.7c-4.3,0-7.4,2.9-7.4,9.4v21h-14.8v-21.8c0-6.1-2.4-8.7-6.4-8.7
			c-4.4,0-7.5,2.9-7.5,9.4v21H440v-42.3h14.1v4.4c3.2-3.4,7.6-5.2,12.6-5.2c5.8,0,10.7,2.1,13.7,6.6c3.4-4.2,8.6-6.6,14.7-6.6
			C504.9,897.6,512.2,903.3,512.2,916.4z"/>
		<path d="M589.3,916.4v24.2h-14.8v-21.8c0-6.1-2.7-8.7-6.9-8.7c-4.8,0-8.4,3-8.4,10v20.4h-14.8v-57.9h14.8v19.5
			c3.3-3,7.7-4.6,12.7-4.6C581.7,897.6,589.3,903.3,589.3,916.4z"/>
		<path d="M596.5,919.3c0-12.7,10.1-21.8,23.9-21.8c14,0,23.9,9.1,23.9,21.8c0,12.8-9.9,21.9-23.9,21.9
			C606.6,941.3,596.5,932.1,596.5,919.3z M629.3,919.3c0-6.4-3.8-10-8.9-10c-5,0-8.9,3.6-8.9,10c0,6.5,3.9,10.1,8.9,10.1
			C625.5,929.5,629.3,925.8,629.3,919.3z"/>
		<path d="M723.3,916.4v24.2h-14.8v-21.8c0-6.1-2.5-8.7-6.4-8.7c-4.3,0-7.4,2.9-7.4,9.4v21h-14.8v-21.8c0-6.1-2.4-8.7-6.4-8.7
			c-4.4,0-7.5,2.9-7.5,9.4v21h-14.8v-42.3h14.1v4.4c3.2-3.4,7.6-5.2,12.6-5.2c5.8,0,10.7,2.1,13.7,6.6c3.4-4.2,8.6-6.6,14.7-6.6
			C716.1,897.6,723.3,903.3,723.3,916.4z"/>
		<path d="M776.3,923.2h-30.7c1.3,4.3,4.9,6.8,10.4,6.8c4.1,0,6.9-1.2,9.8-3.7l7.8,8.1c-4.1,4.5-10,6.9-18,6.9
			c-15.1,0-24.8-9.3-24.8-21.9c0-12.7,9.9-21.8,23.3-21.8c12.5,0,22.6,8,22.6,21.9C776.5,920.6,776.4,922,776.3,923.2z M745.3,915.4
			h17.3c-0.8-4.4-4.1-7.3-8.7-7.3C749.4,908.1,746.2,910.9,745.3,915.4z"/>
	</g>
</g>
</svg>
