<?xml version="1.0" encoding="utf-8"?>
<!-- Generator: Adobe Illustrator 25.0.0, SVG Export Plug-In . SVG Version: 6.00 Build 0)  -->
<svg version="1.1" id="Layer_1" xmlns="http://www.w3.org/2000/svg" xmlns:xlink="http://www.w3.org/1999/xlink" x="0px" y="0px"
	 viewBox="0 0 1080 1080" style="enable-background:new 0 0 1080 1080;" xml:space="preserve">
<style type="text/css">
	.st0{fill:#F4C603;}
	.st1{fill:#141414;}
</style>
<g>
	<g>
		<path class="st1" d="M758.5,243.8L707.7,472c-2.3,10.4-10,17.6-18.6,18.7c-0.6,0.1-1.2,0.1-1.9,0.2c-0.2,0-0.4,0.1-0.5,0.1h-252
			c-0.7,0-1.3,0-2-0.1c-0.1,0-0.2,0-0.3,0c-1.4-0.2-2.7-0.5-4-1c-7-2.5-12.8-9-14.7-17.8l-46.6-209.2h-70.7
			c-11.9,0-21.7-11.4-21.7-25.4c0-7,2.4-13.3,6.4-17.9c3.9-4.6,9.3-7.5,15.3-7.5h87.4c9.6,0,18.5,7.6,21,19l46.6,209.2h218.5
			l39.5-177.4H496.8c-11.9,0-21.7-11.4-21.7-25.4c0-7,2.4-13.3,6.4-17.9c3.9-4.6,9.4-7.5,15.3-7.5h238.5c0.3,0,0.7,0,1,0
			c0.4,0,0.8,0,1.2,0c1.8,0,3.6,0.3,5.5,0.8C754.5,216.4,761.5,230.3,758.5,243.8z"/>
		<path class="st1" d="M454.1,489.7c1.5,0.5,3,0.8,4.6,1C457.2,490.5,455.6,490.2,454.1,489.7z"/>
		<circle class="st1" cx="458.8" cy="555.5" r="50"/>
		<circle class="st1" cx="656.6" cy="555.5" r="50"/>
	</g>
	<g>
		<g>
			<path d="M364.2,839.5c0-17.8,13.6-30.5,32.2-30.5c10.8,0,19.5,3.9,25.2,11.1l-10.5,9.5c-3.7-4.4-8.2-6.9-13.8-6.9
				c-9.6,0-16.3,6.7-16.3,16.7c0,10,6.7,16.7,16.3,16.7c5.6,0,10.1-2.4,13.8-6.9l10.5,9.5c-5.7,7.1-14.4,11-25.2,11
				C377.8,870,364.2,857.4,364.2,839.5z"/>
			<path d="M470.6,843.6v25.2h-14.8V863c-2.3,4.4-6.8,6.6-13.4,6.6c-10.9,0-16.9-6.1-16.9-14c0-8.4,6.1-13.6,20.2-13.6h9
				c-0.3-4.6-3.4-7.2-9.6-7.2c-4.4,0-9.2,1.5-12.3,3.9l-5.4-10.8c5.2-3.4,12.9-5.3,20-5.3C462.1,822.7,470.6,829.2,470.6,843.6z
				 M454.7,854.3v-3.9h-6.9c-5.1,0-7,1.8-7,4.6c0,2.7,2.2,4.6,5.9,4.6C450.3,859.5,453.4,857.9,454.7,854.3z"/>
			<path d="M511,822.7V837c-1.4-0.2-2.4-0.3-3.6-0.3c-6.4,0-10.9,3.3-10.9,11.2v20.8h-15.9v-45.4h15.2v5.4
				C499,824.8,504.3,822.7,511,822.7z"/>
			<path d="M550.2,867c-2.8,1.8-6.9,2.6-11,2.6c-11.6,0-18.4-5.7-18.4-17.3V837h-6.6v-11.9h6.6v-11.8h15.9v11.8h10.4V837h-10.4v15.1
				c0,3.3,1.9,5.2,4.8,5.2c1.8,0,3.5-0.5,4.9-1.4L550.2,867z"/>
			<path d="M554.6,810c0-4.8,3.9-8.5,9.7-8.5s9.7,3.4,9.7,8.2c0,5-3.9,8.7-9.7,8.7S554.6,814.7,554.6,810z M556.4,823.4h15.9v45.4
				h-15.9V823.4z"/>
			<path d="M630.9,842.9v25.9H615v-23.4c0-6.5-2.8-9.3-7.4-9.3c-5.1,0-9,3.2-9,10.7v21.9h-15.9v-45.4h15.2v4.9
				c3.6-3.8,8.7-5.7,14.4-5.7C622.7,822.7,630.9,828.8,630.9,842.9z"/>
			<path d="M690.3,823.4v37.1c0,17.2-9.7,25.3-26.6,25.3c-8.7,0-17-2-22.5-5.9l5.8-11.1c3.8,3,10,4.9,15.3,4.9
				c8.5,0,12.1-3.9,12.1-11v-1.5c-3.1,3.6-7.7,5.4-13.5,5.4c-12.1,0-22.3-8.5-22.3-21.9c0-13.3,10.2-21.9,22.3-21.9
				c6.3,0,11.1,2,14.2,6.3v-5.5H690.3z M674.6,844.5c0-5.5-4.2-9.2-9.9-9.2c-5.7,0-10,3.7-10,9.2c0,5.5,4.3,9.3,10,9.3
				C670.4,853.8,674.6,850.1,674.6,844.5z"/>
			<path d="M378.5,964l5.4-12.2c5.2,3.4,12.6,5.8,19.3,5.8c6.9,0,9.5-1.9,9.5-4.8c0-9.3-33.3-2.5-33.3-24.3c0-10.5,8.5-19,25.9-19
				c7.6,0,15.5,1.8,21.3,5.1l-5.1,12.3c-5.6-3-11.1-4.5-16.2-4.5c-6.9,0-9.5,2.3-9.5,5.3c0,9,33.2,2.3,33.2,23.9
				c0,10.2-8.5,18.9-26,18.9C393.6,970.4,384,967.9,378.5,964z"/>
			<path d="M483,923.9l-19.6,47.2c-4.8,11.7-11.5,15.2-20.4,15.2c-4.8,0-10.1-1.6-13.1-4.1l5.5-11.1c1.8,1.7,4.5,2.7,7,2.7
				c3.1,0,4.9-1.2,6.2-3.9l-19.4-46h16.3l11.1,27.7l11.2-27.7H483z"/>
			<path d="M482.7,965.3l4.8-10.9c4.2,2.6,10.3,4.2,15.8,4.2c5.4,0,7.1-1.2,7.1-3.1c0-6.1-26.8,0.8-26.8-17.3
				c0-8.5,7.9-15.1,22.1-15.1c6.4,0,13.4,1.3,17.9,3.9l-4.8,10.8c-4.5-2.5-9-3.3-13.1-3.3c-5.4,0-7.3,1.5-7.3,3.2
				c0,6.3,26.7-0.5,26.7,17.5c0,8.4-7.7,14.9-22.4,14.9C495.1,970,487.2,968.1,482.7,965.3z"/>
			<path d="M563.4,967.4c-2.8,1.8-6.9,2.6-11,2.6c-11.6,0-18.4-5.7-18.4-17.3v-15.2h-6.6v-11.9h6.6v-11.8h15.9v11.8h10.4v11.9h-10.4
				v15.1c0,3.3,1.9,5.2,4.8,5.2c1.8,0,3.5-0.5,4.9-1.4L563.4,967.4z"/>
			<path d="M614.3,950.6h-33c1.3,4.6,5.3,7.3,11.1,7.3c4.4,0,7.4-1.3,10.5-3.9l8.4,8.7c-4.4,4.9-10.7,7.4-19.3,7.4
				c-16.2,0-26.6-10-26.6-23.5c0-13.6,10.6-23.4,24.9-23.4c13.4,0,24.3,8.5,24.3,23.5C614.6,947.8,614.4,949.4,614.3,950.6z
				 M581.1,942.2h18.6c-0.8-4.8-4.4-7.8-9.3-7.8S582,937.5,581.1,942.2z"/>
			<path d="M699.4,943.3v25.9h-15.9v-23.4c0-6.5-2.7-9.3-6.9-9.3c-4.6,0-8,3.1-8,10.1v22.5h-15.9v-23.4c0-6.5-2.6-9.3-6.9-9.3
				c-4.7,0-8,3.1-8,10.1v22.5h-15.9v-45.4h15.2v4.8c3.4-3.7,8.2-5.5,13.6-5.5c6.2,0,11.5,2.3,14.7,7.1c3.6-4.5,9.2-7.1,15.7-7.1
				C691.6,923.1,699.4,929.3,699.4,943.3z"/>
		</g>
	</g>
</g>
</svg>
