<?xml version="1.0" encoding="utf-8"?>
<!-- Generator: Adobe Illustrator 25.0.0, SVG Export Plug-In . SVG Version: 6.00 Build 0)  -->
<svg version="1.1" id="Layer_1" xmlns="http://www.w3.org/2000/svg" xmlns:xlink="http://www.w3.org/1999/xlink" x="0px" y="0px"
	 viewBox="0 0 1080 1080" style="enable-background:new 0 0 1080 1080;" xml:space="preserve">
<style type="text/css">
	.st0{fill:#F4C603;}
	.st1{fill:#141414;}
</style>
<g>
	<g>
		<path d="M540.4,943.5c0,15.9-10.9,25.8-24.4,25.8c-6.5,0-11.4-1.8-14.7-5.8v5h-16.6v-68.1h17.4V923c3.4-3.5,8.1-5.1,13.8-5.1
			C529.5,917.9,540.4,927.7,540.4,943.5z M522.8,943.5c0-7.5-4.6-11.7-10.5-11.7c-5.9,0-10.5,4.2-10.5,11.7
			c0,7.6,4.6,11.9,10.5,11.9C518.2,955.4,522.8,951.1,522.8,943.5z"/>
		<path d="M546.5,904c0-5.2,4.2-9.3,10.6-9.3s10.6,3.8,10.6,9c0,5.5-4.2,9.5-10.6,9.5S546.5,909.2,546.5,904z M548.5,918.7h17.4
			v49.7h-17.4V918.7z"/>
		<path d="M577.2,900.4h17.4v68.1h-17.4V900.4z"/>
		<path d="M605.9,900.4h17.4v68.1h-17.4V900.4z"/>
	</g>
	<g>
		<path class="st1" d="M665.5,160.9H442.6c-32.4,0-58.8,26.4-58.8,58.8v410.6l51.6-48.1L447,593l28,26.1l28-26l11.6-10.8l39.5,36.9
			l39.6-36.9l39.6,36.9l39.5-36.9l11.6,10.8l40,37.3V219.8C724.3,187.3,697.9,160.9,665.5,160.9z M423.1,343.1
			c0-6.3,5.1-11.4,11.4-11.4h81.8c6.3,0,11.4,5.1,11.4,11.4v3.6c0,6.3-5.1,11.4-11.4,11.4h-81.8c-6.3,0-11.4-5.1-11.4-11.4V343.1z
			 M527.6,446.9c0,6.3-5.1,11.4-11.4,11.4h-81.8c-6.3,0-11.4-5.1-11.4-11.4v-3.6c0-6.3,5.1-11.4,11.4-11.4h81.8
			c6.3,0,11.4,5.1,11.4,11.4V446.9z M554,396.8c0,6.3-5.1,11.4-11.4,11.4H434.5c-6.3,0-11.4-5.1-11.4-11.4v-3.6
			c0-6.3,5.1-11.4,11.4-11.4h108.2c6.3,0,11.4,5.1,11.4,11.4V396.8z M666.1,346.4c1,2,1.7,4,2,6h25.8l-9.4,20.7H668
			c-0.7,4.5-2.3,8.6-4.6,12.3c-2.4,3.6-5.3,6.8-8.8,9.5c-3.5,2.7-7.5,4.9-11.9,6.5c-4.5,1.7-9.1,2.7-14,3.2l50.9,53.8h-33.2
			l-47-52.3v-20.7h13.9c1.8,0,4-0.1,6.7-0.4c2.7-0.2,5.4-0.8,8.1-1.6c2.6-0.8,5.1-2.1,7.2-3.7c2.2-1.6,3.7-3.8,4.5-6.5h-45l9.4-20.7
			h35.5c-0.7-2.5-2.1-4.5-4.1-5.9c-2-1.4-4.4-2.5-7.2-3.2c-2.8-0.7-5.9-1.1-9.3-1.4c-3.4-0.2-7-0.3-10.7-0.3h-13.6l9.4-20.7h89.7
			l-9.4,20.7H663C664.1,342.9,665.1,344.4,666.1,346.4z"/>
	</g>
</g>
</svg>
