<svg id="Layer_1" data-name="Layer 1" xmlns="http://www.w3.org/2000/svg" viewBox="0 0 1080 1080"><defs><style>.cls-1{fill:#141414;}.cls-2{fill:#f4c603;}</style></defs><path class="cls-1" d="M406.83,456.29v99.08H380.16V525.62c-5.19,5.33-12.35,8-21.19,8-20.63,0-37.33-15.16-37.33-39.3S338.34,455,359,455c10,0,17.4,2.8,22.45,8.84v-7.58Zm-26.25,38c0-11.51-7-18.1-16-18.1s-16,6.59-16,18.1,7,18.11,16,18.11S380.58,505.83,380.58,494.32Z"/><path class="cls-1" d="M499.51,456.29v76.07H474.1v-8.14c-5.75,6.31-13.89,9.4-22.59,9.4-18.67,0-32.28-10.67-32.28-34.81V456.29H445.9v38.17c0,11.79,4.63,16.42,12.63,16.42s14.31-5.19,14.31-18V456.29Z"/><rect class="cls-1" x="511.83" y="456.29" width="26.67" height="76.07"/><path class="cls-1" d="M550.76,494.18c0-22.87,18.1-39.15,43.64-39.15,17.26,0,30.46,7.72,35.65,20.91l-20.63,10.52c-3.65-7.15-9-10.24-15.16-10.24-9.26,0-16.56,6.45-16.56,18,0,11.79,7.3,18.25,16.56,18.25,6.18,0,11.51-3.09,15.16-10.25l20.63,10.53c-5.19,13.19-18.39,20.91-35.65,20.91C568.86,533.62,550.76,517.34,550.76,494.18Z"/><path class="cls-1" d="M676.85,505.69l-7.86,8v18.67H642.32V428.22H669v54.59l27.22-26.52h31.58l-31.58,32.56,34.25,43.51H698.18Z"/><circle class="cls-1" cx="525.16" cy="435.16" r="14.45"/><path class="cls-1" d="M321.61,619.16c0-23.12,18.29-39.57,43.39-39.57,25.39,0,43.4,16.45,43.4,39.57S390.39,659,365,659C339.9,659,321.61,642.41,321.61,619.16Zm59.56,0c0-11.63-6.95-18.16-16.17-18.16-9.07,0-16.16,6.53-16.16,18.16s7.09,18.43,16.16,18.43C374.22,637.59,381.17,630.93,381.17,619.16Z"/><path class="cls-1" d="M472.35,579.59v24.25a49.63,49.63,0,0,0-6.09-.42c-10.92,0-18.44,5.53-18.44,19v35.31H420.88V580.87h25.66v9.22C452.07,583.14,461,579.59,472.35,579.59Z"/><path class="cls-1" d="M570.63,555.63v102.1H545v-7.66c-5.1,6.1-12.62,8.94-22.54,8.94-21,0-37.87-15.32-37.87-39.85s16.88-39.57,37.87-39.57c8.93,0,16.16,2.55,21.27,7.94v-31.9Zm-26.52,63.53c0-11.63-7-18.16-16-18.16-9.22,0-16.17,6.53-16.17,18.16s6.95,18.43,16.17,18.43C537.16,637.59,544.11,630.93,544.11,619.16Z"/><path class="cls-1" d="M666.07,626.11H610.2c2.27,7.8,8.93,12.33,18.86,12.33,7.52,0,12.48-2.12,17.73-6.66L661,646.53c-7.38,8.22-18.15,12.48-32.76,12.48-27.37,0-45.1-16.88-45.1-39.85s18-39.57,42.26-39.57c22.69,0,41.13,14.47,41.13,39.85C666.5,621.43,666.21,624,666.07,626.11Zm-56.3-14.19h31.49c-1.42-8.08-7.38-13.18-15.75-13.18S611.33,603.84,609.77,611.92Z"/><path class="cls-1" d="M730.46,579.59v24.25a49.65,49.65,0,0,0-6.1-.42c-10.92,0-18.44,5.53-18.44,19v35.31H679V580.87h25.67v9.22C710.18,583.14,719.11,579.59,730.46,579.59Z"/><path class="cls-2" d="M726,642.65c0-9.65,7.1-15.89,16.17-15.89,9.22,0,16.17,6.24,16.17,15.89,0,9.35-6.95,16-16.17,16C733.07,658.67,726,652,726,642.65Z"/></svg>